<?xml version="1.0" encoding="UTF-8"?>
<svg width="20px" height="20px" viewBox="0 0 20 20" version="1.1" xmlns="http://www.w3.org/2000/svg" xmlns:xlink="http://www.w3.org/1999/xlink">
    <title>Fill</title>
    <g id="Symbols" stroke="none" stroke-width="1" fill="none" fill-rule="evenodd">
        <g id="Icon/Alert-Circle/Fill" transform="translate(-2.000000, -2.000000)" fill="#1E90FF">
            <path d="M11.9999996,2 L11.9999996,2 C6.47714956,2 1.99999956,6.47715 1.99999956,12 C1.99999956,17.52285 6.47714956,22 11.9999996,22 C17.5228496,22 21.9999996,17.52285 21.9999996,12 L21.9999996,12 C21.9999996,6.47715044 17.5228496,2 11.9999996,2 L11.9999996,2 Z M12,17 L12,17 C11.447715,17 11,16.552285 11,16 C11,15.447715 11.447715,15 12,15 C12.552285,15 13,15.447715 13,16 L13,16 C13,16.552285 12.552285,17 12,17 L12,17 Z M13,13.0000002 L13,13.0000002 C13,13.552285 12.552285,14.0000002 12,14.0000002 C11.447715,14.0000002 11,13.552285 11,13.0000002 L11,8.00000015 L11,8.00000015 C11,7.44771515 11.447715,7.00000015 12,7.00000015 C12.552285,7.00000015 13,7.44771515 13,8.00000015 C13,8.00000015 13,8.00000015 13,8.00000015 L13,13.0000002 Z" id="Fill"></path>
        </g>
    </g>
</svg>