<?xml version="1.0" encoding="UTF-8"?>
<svg width="16px" height="20px" viewBox="0 0 16 20" version="1.1" xmlns="http://www.w3.org/2000/svg" xmlns:xlink="http://www.w3.org/1999/xlink">
    <title>Fill</title>
    <g id="Symbols" stroke="none" stroke-width="1" fill="none" fill-rule="evenodd">
        <g id="Icon/Edit-2/Fill" transform="translate(-4.000000, -2.000000)" fill="#1E90FF">
            <path d="M19,20 C19.5522849,20 20,20.447715 20,21 C20,21.552285 19.5522849,22 19,22 L19,22 L4.99999996,22 C4.44771496,22 3.99999996,21.552285 3.99999996,21 C3.99999996,20.447715 4.44771496,20 4.99999996,20 L4.99999996,20 Z M13.9999999,2.52999992 C14.7758199,1.87455092 15.9197239,1.90465392 16.6599999,2.59999992 L16.6599999,2.59999992 L19.3999999,5.33999991 C20.1659861,6.06976991 20.1972901,7.28166191 19.4700001,8.04999991 L19.4700001,8.04999991 L10.47,17.05 C10.144035,17.373234 9.71679603,17.5744954 9.26000003,17.62 L9.26000003,17.62 L5.09,18.0000172 L4.99999977,18.0000172 C4.73419677,18.0015365 4.47871877,17.8971865 4.28999977,17.7100005 L4.28999977,17.7100005 L4.20607878,17.6150674 C4.05138865,17.415958 3.97662226,17.1641819 3.9999998,16.9100005 L3.9999998,16.9100005 L4.42999984,12.74 C4.47550484,12.283204 4.67676584,11.855965 4.99999984,11.53 L4.99999984,11.53 Z M15.27,4 L13.32,6 L16,8.68 L18,6.73 L15.27,4 Z" id="Fill"></path>
        </g>
    </g>
</svg>