<?xml version="1.0" encoding="UTF-8"?>
<svg width="16px" height="19px" viewBox="0 0 16 19" version="1.1" xmlns="http://www.w3.org/2000/svg" xmlns:xlink="http://www.w3.org/1999/xlink">
    <title>Path</title>
    <g id="Symbols" stroke="none" stroke-width="1" fill="none" fill-rule="evenodd">
        <g id="Icon/Bookmark/Line" transform="translate(-4.000000, -3.000000)" fill="#1E90FF">
            <path d="M6.09,21.0600081 L6.08999996,21.0600081 C5.53771496,21.0600081 5.08999996,20.612285 5.08999996,20.06 C5.08999996,20.06 5.08999996,20.06 5.08999996,20.06 L4.93999996,5.4 L4.93999989,5.39999839 C4.88954859,4.15285839 5.85965889,3.10094839 7.10679989,3.05049839 C7.11119898,3.05032043 7.11559857,3.05015533 7.11999859,3.05000308 L16.7099986,3.00000318 L16.7099987,3.00000318 C17.9634987,3.02189659 18.9619087,4.05580319 18.9400087,5.30930319 C18.9400046,5.3095381 18.9400005,5.30977301 18.9399963,5.31000792 L19.0800445,19.9700079 L19.0800445,19.9700091 C19.08349,20.3266381 18.8967843,20.6581361 18.5899953,20.8400081 L18.5899954,20.840008 C18.2805944,21.018641 17.8993964,21.018641 17.5899954,20.8400081 L11.8899954,17.6800081 L6.59999537,20.9100081 L6.59999544,20.9100081 C6.44334744,20.9975079 6.26907244,21.0487651 6.08999544,21.0600081 L6.09,21.0600081 Z M11.85,15.51 L11.85,15.51 C12.023762,15.510313 12.195023,15.5514158 12.35,15.63 L17.06,18.24 L16.94,5.29 C16.94,5.09 16.81,4.95 16.73,4.96 L7.13000004,5.05 C7.05000004,5.05 6.94000004,5.18 6.94000004,5.38 L7.06000004,18.28 L11.34,15.65 L11.3399999,15.6500001 C11.4954409,15.5609927 11.6709019,15.5128271 11.8499999,15.5100001 L11.85,15.51 Z" id="Fill" fill="white"></path>
        </g>
    </g>
</svg>