<?xml version="1.0" encoding="UTF-8"?>
<svg width="16px" height="13px" viewBox="0 0 16 13" version="1.1" xmlns="http://www.w3.org/2000/svg" xmlns:xlink="http://www.w3.org/1999/xlink">
    <title>FIll</title>
    <g id="Symbols" stroke="none" stroke-width="1" fill="none" fill-rule="evenodd">
        <g id="enhant/Icon/FullCapture" transform="translate(-4.000000, -6.000000)" fill="white">
            <path d="M20,15 L20,19 L15,19 L15,17 L18,17 L18,15 L20,15 Z M4,19 L4,14 L6,14 L6,17 L9,17 L9,19 L4,19 Z M20,6 L20,10 L18,10 L18,8 L15,8 L15,6 L20,6 Z M9,6 L9,8 L6,8 L6,10 L4,10 L4,6 L9,6 Z" id="FIll"></path>
        </g>
    </g>
</svg>