<?xml version="1.0" encoding="UTF-8"?>
<svg width="20px" height="18px" viewBox="0 0 20 18" version="1.1" xmlns="http://www.w3.org/2000/svg" xmlns:xlink="http://www.w3.org/1999/xlink">
    <title>Fill</title>
    <g id="Symbols" stroke="none" stroke-width="1" fill="none" fill-rule="evenodd">
        <g id="Icon/Camera/Line" transform="translate(-2.000000, -3.000000)" fill="#1E90FF">
            <path d="M13.4999998,3 C14.88071,3 15.9999998,4.11929 15.9999998,5.5 L15.9999998,5.5 L15.9999998,7 L18.9999998,7 C20.6568496,7 21.9999998,8.34314955 21.9999998,10 L21.9999998,10 L21.9999998,18 C21.9999998,19.6568495 20.6568496,21 18.9999998,21 L18.9999998,21 L4.99999976,21 C3.34314976,21 1.99999976,19.6568495 1.99999976,18 L1.99999976,18 L1.99999976,10 L1.99999976,10 L2.00509247,9.82372764 C2.09633917,8.24892392 3.40232297,7 4.99999976,7 L4.99999976,7 L7.99999976,7 L7.99999976,5.5 L7.99999976,5.5 L8.00531745,5.33562452 C8.08996124,4.03153766 9.17451829,3 10.4999998,3 L10.4999998,3 Z M19,9.00000015 L4.99999996,9.00000015 C4.44771496,9.00000015 3.99999996,9.44771515 3.99999996,10.0000002 L3.99999996,10.0000002 L3.99999996,18.0000002 L3.99999996,18.0000002 L4.00672768,18.1166213 C4.06449276,18.61396 4.48716388,19.0000002 4.99999996,19.0000002 L4.99999996,19.0000002 L19,19.0000002 C19.552285,19.0000002 20,18.552285 20,18.0000002 L20,18.0000002 L20,10.0000002 C20,9.44771515 19.5522849,9.00000015 19,9.00000015 L19,9.00000015 Z M11.9999998,10.5 L12.1920354,10.5051789 C14.0357254,10.6048733 15.4999998,12.1314333 15.4999998,14 L15.4999998,14 L15.494821,14.1920355 C15.3951265,16.0357256 13.8685665,17.5 11.9999998,17.5 C10.0669998,17.5 8.49999985,15.933 8.49999985,14 C8.49999985,12.067 10.0669998,10.5 11.9999998,10.5 L11.9999998,10.5 Z M11.9999999,12.5 C11.1715729,12.5 10.4999999,13.171573 10.4999999,14 C10.4999999,14.828427 11.1715729,15.5 11.9999999,15.5 L11.9999999,15.5 L12.1444599,15.4931334 C12.9051117,15.4204487 13.4999999,14.779696 13.4999999,14 L13.4999999,14 L13.4931334,13.85554 C13.4204486,13.0948882 12.7796959,12.5 11.9999999,12.5 Z M13.5,5.00000008 L10.5,5.00000008 C10.223858,5.00000008 9.99999998,5.22385808 9.99999998,5.50000008 L9.99999998,5.50000008 L9.99999998,7.00000008 L14,7.00000008 L14,5.50000008 C14,5.22385808 13.776142,5.00000008 13.5,5.00000008 L13.5,5.00000008 Z" id="Fill" fill="white"></path>
        </g>
    </g>
</svg>