<?xml version="1.0" encoding="UTF-8"?>
<svg width="20px" height="18px" viewBox="0 0 20 18" version="1.1" xmlns="http://www.w3.org/2000/svg" xmlns:xlink="http://www.w3.org/1999/xlink">
    <title>Shape</title>
    <g id="Symbols" stroke="none" stroke-width="1" fill="none" fill-rule="evenodd">
        <g id="enhant/Icon/Eraser" transform="translate(-2.000000, -3.000000)" fill="white">
            <path d="M21.384613,12.622345 C21.7814941,12.2256164 22,11.6979675 22,11.1367493 C22,10.575531 21.7814941,10.0478821 21.384613,9.65115355 L15.3683777,3.6349182 C14.9716492,3.23803711 14.4440002,3.01953125 13.882782,3.01953125 C13.3215637,3.01953125 12.7939148,3.23803711 12.3971863,3.6349182 L2.61538695,13.4167175 C2.21850586,13.8134461 2,14.341095 2,14.9023132 C2,15.4635315 2.21850586,15.9911804 2.61538695,16.3880615 L5.5646057,19.3372803 L4.46871949,19.3372803 C4.14508055,19.3372803 3.88278199,19.5995789 3.88278199,19.9232178 C3.88278199,20.2467041 4.14508055,20.5091553 4.46871949,20.5091553 L19.5312805,20.5091553 C19.8549195,20.5091553 20.117218,20.2467041 20.117218,19.9232178 C20.117218,19.5995789 19.8549195,19.3372803 19.5312805,19.3372803 L14.6698303,19.3372803 L21.384613,12.622345 Z M13.2258911,4.46347047 C13.5887451,4.10061645 14.1765137,4.10015867 14.5398254,4.46347047 L20.5560608,10.4797058 C20.9189148,10.8425598 20.9193726,11.4304809 20.5560608,11.7937927 L16.0794373,16.2704162 L8.74926758,8.94009398 L13.2258911,4.46347047 Z M7.22186281,19.3372803 L3.44393922,15.5593567 C3.0810852,15.1965027 3.08062742,14.6087341 3.44393922,14.2454223 L7.92056273,9.76879883 L15.250885,17.0989685 L13.0125732,19.3372803 L7.22186281,19.3372803 Z" id="Shape"></path>
        </g>
    </g>
</svg>