<?xml version="1.0" encoding="UTF-8"?>
<svg width="20px" height="18px" viewBox="0 0 20 18" version="1.1" xmlns="http://www.w3.org/2000/svg" xmlns:xlink="http://www.w3.org/1999/xlink">
    <title>Fill</title>
    <g id="Symbols" stroke="none" stroke-width="1" fill="none" fill-rule="evenodd">
        <g id="Icon/Eye-Off/Line" transform="translate(-2.000000, -3.000000)" fill="white">
            <path d="M3.29000007,3.28999993 C3.68212007,2.89787807 4.31787807,2.89787807 4.71000007,3.29000007 L4.71000007,3.29000007 L20.7099981,19.2900016 C20.7119387,19.2919264 20.7138715,19.2938592 20.7157964,19.2957999 C21.1047161,19.6879199 21.1021201,20.3210799 20.7099981,20.7099999 L20.7099981,20.7099999 C20.3120798,21.1047179 19.6789198,21.1021219 19.2899998,20.7099999 L19.2899998,20.7099999 L13.6599998,15.0799999 C12.6252198,15.6362512 11.3803998,15.6362512 10.3456198,15.0800002 C8.6430328,14.1647602 8.0047598,12.0425902 8.9199998,10.3400002 L8.9199998,10.3400002 L3.28999993,4.70999993 L3.28999993,4.70999993 L3.20647101,4.61540756 C2.90019832,4.22151264 2.9280413,3.6519587 3.29000007,3.28999993 Z M5.00000008,7.87000008 L6.45999976,9.28000038 C5.59935976,10.0864704 4.84647076,11.0006924 4.21999976,12.0000004 L4.21999976,12.0000004 L4.28963031,12.1099302 C5.241925,13.5921313 8.0275,17.0975 12.22,17 C12.79419,16.9800199 13.364369,16.8961699 13.92,16.7499999 L13.92,16.7499999 L15.4999995,18.3300001 C14.4707595,18.7403811 13.3775495,18.9671465 12.2699995,19.0000001 L12.2699995,19.0000001 L12.0200001,19.0000001 C6.13000006,19.0000001 2.76000006,13.59 2.13000006,12.5 C1.95136711,12.190599 1.95136711,11.809401 2.13000011,11.5 L2.13000011,11.5 L2.39522455,11.0566664 C3.12127811,9.8866381 3.99673786,8.81530675 5.00000008,7.87000008 L5.00000008,7.87000008 Z M12.0783588,4.99596686 C17.8373203,5.03671665 21.242549,10.4117647 21.87,11.5 C22.0611711,11.8022055 22.0764221,12.1834915 21.9099991,12.5000005 L21.9099991,12.5000005 L21.6406456,12.9441269 C20.9034539,14.1160173 20.0158569,15.1871827 18.9999997,16.1300005 L18.9999997,16.1300005 L17.4899994,14.7200002 C18.3682494,13.9166602 19.1380624,13.0022902 19.7799994,12.0000002 L19.7799994,12.0000002 L19.7096379,11.8900516 C18.7480807,10.4073813 15.9627494,6.89275008 11.7799994,7.00000008 C11.2058094,7.01998008 10.6356304,7.10383008 10.0799994,7.25000008 L10.0799994,7.25000008 L8.49999972,5.67000001 C9.52923972,5.25961901 10.6224497,5.03285371 11.7299997,5.00000001 L11.7299997,5.00000001 Z M10.4999999,11.93 L10.4999999,12 L10.4999999,12 L10.5068665,12.14446 C10.5795513,12.9051118 11.2203039,13.5 11.9999999,13.5 L11.9999999,13.5 L12.0599999,13.49 L10.4999999,11.93 Z" id="Fill"></path>
        </g>
    </g>
</svg>