<?xml version="1.0" encoding="UTF-8"?>
<svg width="20px" height="20px" viewBox="0 0 20 20" version="1.1" xmlns="http://www.w3.org/2000/svg" xmlns:xlink="http://www.w3.org/1999/xlink">
    <title>Shape</title>
    <g id="Symbols" stroke="none" stroke-width="1" fill="none" fill-rule="evenodd">
        <g id="enhant/Icon/Highlighter" transform="translate(-2.000000, -2.000000)" fill="#1E90FF">
            <path d="M21.3846189,4.86590903 L19.1340975,2.61538765 C18.737216,2.21850611 18.2097191,2 17.6483476,2 C17.0871287,2 16.5596317,2.21850611 16.1627502,2.61523507 L6.06966014,12.7084777 C5.46876833,13.3092169 5.13795741,14.108168 5.13795741,14.9579309 C5.13795741,15.3169706 4.99238841,15.6685335 4.73848188,15.9224401 L3.87040835,16.790361 C3.64457802,17.0163439 3.51503076,17.3289969 3.51503076,17.6485162 C3.51503076,17.8572567 3.57072544,18.063098 3.67219649,18.2439149 L2.17164545,19.7444659 C2.04743879,19.8686726 1.98548801,20.04186 2.00288307,20.2165734 C2.02012552,20.3912867 2.11488269,20.5490628 2.2609095,20.6464139 L3.76710624,21.650596 C3.8662885,21.7166666 3.97950883,21.7490153 4.09196626,21.7490153 C4.243181,21.7490153 4.39317508,21.6905741 4.5063954,21.5773537 L5.75609166,20.3276575 C5.93690851,20.4292811 6.14274983,20.4849758 6.35164288,20.4849758 C6.67100969,20.4849758 6.98381524,20.3554285 7.20964557,20.1294456 L8.07756648,19.2615247 C8.33147302,19.0076181 8.68303591,18.8618965 9.04207562,18.8618965 C9.89183853,18.8618965 10.6907896,18.5310856 11.2915288,17.9303464 L21.3846189,7.83725638 C21.7815004,7.44037483 22,6.91272529 22,6.35150641 C22,5.7902875 21.7815004,5.26279057 21.3846189,4.86590903 Z M4.01750329,20.4091395 L3.50557032,20.0678 L4.46870618,19.1046641 L4.8953424,19.5313004 L4.01750329,20.4091395 Z M7.2488607,18.4328189 L6.38093979,19.3007398 C6.38093979,19.3008924 6.38093979,19.3008924 6.38078721,19.3008924 C6.36537579,19.3164564 6.33775736,19.3163038 6.32204078,19.3008924 L4.88298278,17.8616818 C4.88298278,17.8616818 4.88283016,17.8616818 4.88283016,17.8615292 L4.69911414,17.6778132 C4.68080357,17.6595026 4.68477088,17.6332575 4.69911414,17.6190668 L5.56718762,16.7511459 C6.04616156,16.2721719 6.30983373,15.6354219 6.30983373,14.9579309 C6.30983373,14.6910544 6.3615611,14.4321125 6.46013301,14.1925492 L9.80745734,17.539721 C9.56789407,17.6382929 9.30895213,17.6901728 9.04207562,17.6901728 C8.36473719,17.6901728 7.7278346,17.953845 7.2488607,18.4328189 L7.2488607,18.4328189 Z M10.7448058,16.8198105 L7.18019605,13.2552007 L15.7655635,4.66983334 L19.3301732,8.23444308 L10.7448058,16.8198105 Z M20.5560657,7.0085506 L20.158879,7.40573733 L16.5942692,3.84112755 L16.991456,3.44394085 C17.3543103,3.08108642 17.9420796,3.08062865 18.3053918,3.44394085 L20.5560657,5.69461477 C20.9189201,6.05746921 20.9193779,6.64523843 20.5560657,7.0085506 L20.5560657,7.0085506 Z" id="Shape"></path>
        </g>
    </g>
</svg>