<?xml version="1.0" encoding="UTF-8"?>
<svg width="20px" height="20px" viewBox="0 0 20 20" version="1.1" xmlns="http://www.w3.org/2000/svg" xmlns:xlink="http://www.w3.org/1999/xlink">
    <title>Fill</title>
    <g id="Symbols" stroke="none" stroke-width="1" fill="none" fill-rule="evenodd">
        <g id="Icon/Info/Fill" transform="translate(-2.000000, -2.000000)" fill="#1E90FF">
            <path d="M11.9999996,2 L11.9999996,2 C6.47714956,2 1.99999956,6.47715 1.99999956,12 C1.99999956,17.52285 6.47714956,22 11.9999996,22 C17.5228496,22 21.9999996,17.52285 21.9999996,12 L21.9999996,12 C21.9999996,6.47715044 17.5228496,2 11.9999996,2 L11.9999996,2 Z M13,16.0000002 L13,16.0000002 C13,16.552285 12.552285,17.0000002 12,17.0000002 C11.447715,17.0000002 11,16.552285 11,16.0000002 L11,11.0000002 L11,11.0000002 C11,10.4477152 11.447715,10.0000002 12,10.0000002 C12.552285,10.0000002 13,10.4477152 13,11.0000002 C13,11.0000002 13,11.0000002 13,11.0000002 L13,16.0000002 Z M12,9 L12,9 C11.447715,9 11,8.552285 11,8 C11,7.447715 11.447715,7 12,7 C12.552285,7 13,7.447715 13,8 L13,8 C13,8.552285 12.552285,9 12,9 L12,9 Z" id="Fill"></path>
        </g>
    </g>
</svg>