<?xml version="1.0" encoding="UTF-8"?>
<svg width="20px" height="20px" viewBox="0 0 20 20" version="1.1" xmlns="http://www.w3.org/2000/svg" xmlns:xlink="http://www.w3.org/1999/xlink">
    <title>Notifications/Notification Badge/Icon</title>
    <g id="Hi-Fi-Wires-v2" stroke="none" stroke-width="1" fill="none" fill-rule="evenodd">
        <g id="Extra-Icons" transform="translate(-79.000000, -234.000000)">
            <g id="Notification-area" transform="translate(72.000000, 228.000000)">
                <g id="enhant/Icon/Jigsaw" transform="translate(5.000000, 4.000000)">
                    <rect id="24pt-Bounding-Box" x="0" y="0" width="24" height="24"></rect>
                    <path d="M2,7.38461538 C2,6.53494654 2.68879269,5.84615385 3.53846154,5.84615385 L7.38461538,5.84615385 L7.38461538,4.30769231 C7.38461538,3.03318904 8.41780442,2 9.69230769,2 L10.4615385,2 C11.7360417,2 12.7692308,3.03318904 12.7692308,4.30769231 L12.7692308,5.84615385 L16.6153846,5.84615385 C17.4650535,5.84615385 18.1538462,6.53494654 18.1538462,7.38461538 L18.1538462,11.2307692 L19.6923077,11.2307692 C20.966811,11.2307692 22,12.2639583 22,13.5384615 L22,14.3076923 C22,15.5821956 20.966811,16.6153846 19.6923077,16.6153846 L18.1538462,16.6153846 L18.1538462,20.4615385 C18.1538462,21.3112073 17.4650535,22 16.6153846,22 L12.7692308,22 L12.7692308,20.4615385 C12.7692308,19.1870352 11.7360417,18.1538462 10.4615385,18.1538462 L10.4615385,18.1538462 L9.69230769,18.1538462 C8.41780442,18.1538462 7.38461538,19.1870352 7.38461538,20.4615385 L7.38461538,20.4615385 L7.38461538,22 L3.53846154,22 C2.68879269,22 2,21.3112073 2,20.4615385 L2,16.6153846 L3.53846154,16.6153846 C4.81296481,16.6153846 5.84615385,15.5821956 5.84615385,14.3076923 L5.84615385,14.3076923 L5.84615385,13.5384615 C5.84615385,12.2639583 4.81296481,11.2307692 3.53846154,11.2307692 L3.53846154,11.2307692 L2,11.2307692 L2,7.38461538 Z" id="Fill" fill="#1E90FF" fill-rule="evenodd"></path>
                </g>
            </g>
        </g>
    </g>
</svg>