<?xml version="1.0" encoding="UTF-8"?>
<svg width="16px" height="20px" viewBox="0 0 16 20" version="1.1" xmlns="http://www.w3.org/2000/svg" xmlns:xlink="http://www.w3.org/1999/xlink">
    <title>Fill</title>
    <g id="Symbols" stroke="none" stroke-width="1" fill="none" fill-rule="evenodd">
        <g id="Icon/File-Text/Line" transform="translate(-4.000000, -2.000000)" fill="#1E90FF">
            <path d="M13.56,1.99981627 C13.842178,2.00066701 14.110941,2.12052101 14.3,2.33000001 L14.3,2.33000001 L19.7399985,8.32999764 C19.906695,8.51339664 19.9993495,8.75216264 19.9999957,8.99999864 L19.9999957,8.99999864 L19.9999957,19.4999947 L19.9999957,19.4999947 L19.9926295,19.6666281 C19.8912275,20.9852494 18.781284,22.0160053 17.4399912,22.0001799 L17.4399912,22.0001799 L6.55999134,22.0001799 L6.55999134,22.0001799 L6.39323599,21.9967388 C5.07258342,21.9264817 4.01580323,20.8412831 3.99999568,19.4999903 L3.99999568,19.4999903 L3.99999568,4.49999574 L3.99999568,4.49999574 L4.00736186,4.33336796 C4.10876361,3.01474694 5.21870716,1.98399369 6.55999996,1.99981627 L6.55999996,1.99981627 Z M12.0000001,3.99999962 L6.55830505,3.99990366 C6.26603505,3.98382966 6.01607385,4.20773066 6.00000005,4.49999966 L6.00000005,4.49999966 L6.00000005,19.501695 C6.01710602,19.793912 6.26778402,20.0170102 6.56000002,20 L6.56000002,20 L17.4416954,20.0000979 C17.7339654,20.0161719 17.9839266,19.7922709 18.0000001,19.5000019 L18.0000001,19.5000019 L18.0000001,10.000002 L14.7100004,10.000002 C13.1768504,9.95639203 11.9663973,8.68340203 12.0000001,7.15000203 L12.0000001,7.15000203 L12.0000001,3.99999962 Z M15,16 C15.5522849,16 16,16.447715 16,17 C16,17.552285 15.5522849,18 15,18 L15,18 L8.99999996,18 C8.44771496,18 7.99999996,17.552285 7.99999996,17 C7.99999996,16.447715 8.44771496,16 8.99999996,16 L8.99999996,16 Z M11.9999999,12 C12.552285,12 12.9999999,12.447715 12.9999999,13 C12.9999999,13.552285 12.552285,14 11.9999999,14 L11.9999999,14 L8.99999991,14 C8.44771491,14 7.99999991,13.552285 7.99999991,13 C7.99999991,12.447715 8.44771491,12 8.99999991,12 L8.99999991,12 Z M14,5 L13.9999997,7.1499998 C13.9996404,7.15460629 13.9993215,7.15921588 13.999043,7.163828 L13.9997816,7.2712661 C14.0287604,7.65931734 14.3407807,7.97589818 14.74,8 L14.74,8 L16.74,8 L14,5 Z" id="Fill" fill="white"></path>
        </g>
    </g>
</svg>