<?xml version="1.0" encoding="UTF-8"?>
<svg width="20px" height="20px" viewBox="0 0 20 20" version="1.1" xmlns="http://www.w3.org/2000/svg" xmlns:xlink="http://www.w3.org/1999/xlink">
    <title>Shape</title>
    <g id="Symbols" stroke="none" stroke-width="1" fill="none" fill-rule="evenodd">
        <g id="enhant/Icon/Pen" transform="translate(-2.000000, -2.000000)" fill="#1E90FF">
            <path d="M22,3.91741945 C22,3.40548707 21.8007202,2.92422484 21.4389343,2.56198121 C21.4387817,2.56182859 21.4386291,2.56167602 21.4384766,2.56152344 C21.438324,2.56137086 21.4381714,2.56121828 21.4380188,2.56106566 C21.0757752,2.19927977 20.5943604,2 20.0825805,2 C19.5704956,2 19.0890808,2.19943238 18.7271423,2.56137086 L18.2760925,3.01257324 L18.0627746,2.79925539 C17.9213257,2.65780641 17.748291,2.62759398 17.6484985,2.62759398 L16.047699,2.62759398 C15.3045959,2.62759398 14.605896,2.9170532 14.0803833,3.44256594 L9.7027893,7.82000734 C9.47406008,8.04888914 9.47406008,8.41983031 9.7027893,8.64871215 C9.93167113,8.87759398 10.3026123,8.87759398 10.5314941,8.64871215 C10.5316467,8.64855957 10.5316467,8.64855957 10.5317993,8.64840699 L14.9090881,4.27111816 C15.2131958,3.96701051 15.6177063,3.79946898 16.047699,3.79946898 L16.2338562,3.79946898 L4.05444336,15.9788818 C3.99523926,16.0380859 3.94946289,16.1091919 3.92016602,16.1874695 L2.03738402,21.2082214 C1.95666504,21.4233704 2.00915527,21.6658325 2.17166137,21.8283386 C2.28350828,21.9403381 2.43334961,22 2.58609008,22 C2.6550598,22 2.72463988,21.987793 2.79162598,21.962616 L7.81253051,20.079834 C7.89218141,20.0499268 7.96420289,20.0032348 8.02401734,19.9425049 L21.1101074,6.66934203 C21.3362427,6.44015504 21.3348694,6.07135008 21.1072082,5.84368898 L20.9874268,5.72390746 L21.4386291,5.27270508 C21.8005676,4.91091918 22,4.42950437 22,3.91741945 L22,3.91741945 Z M3.58721922,20.4127808 L4.69790648,17.4510498 L6.54910277,19.3020935 L3.58721922,20.4127808 Z M7.60379027,18.6996765 L5.2974243,16.3933105 L17.6483459,4.04223633 L19.8671265,6.26101684 L7.60379027,18.6996765 Z M20.6099243,4.44415281 L20.1588745,4.89535523 L19.1046448,3.84112547 L19.5558472,3.3900757 C19.694397,3.25137328 19.8865051,3.171875 20.0825805,3.171875 C20.2815552,3.171875 20.4687805,3.24938965 20.6097717,3.39022828 C20.7506104,3.53121949 20.828125,3.71844484 20.828125,3.91741945 C20.828125,4.11349488 20.7486267,4.30560305 20.6099243,4.44415281 Z" id="Shape"></path>
        </g>
    </g>
</svg>