<?xml version="1.0" encoding="UTF-8"?>
<svg width="20px" height="20px" viewBox="0 0 20 20" version="1.1" xmlns="http://www.w3.org/2000/svg" xmlns:xlink="http://www.w3.org/1999/xlink">
    <title>Fill</title>
    <g id="Symbols" stroke="none" stroke-width="1" fill="none" fill-rule="evenodd">
        <g id="enhant/Icon/Record/Small" transform="translate(-2.000000, -2.000000)" fill="#1E90FF">
            <path d="M12,2 L12.279905,2.0038418 C17.6733316,2.15206821 22,6.57075806 22,12 L22,12 L21.9961582,12.279905 C21.8479318,17.6733316 17.4292424,22 12,22 C6.47715,22 2,17.52285 2,12 C2,6.47715 6.47715,2 12,2 L12,2 Z M12.0000001,4 C7.58172009,4 4.00000009,7.58172 4.00000009,12 C4.00000009,16.41828 7.58172009,20 12.0000001,20 L12.0000001,20 L12.2491795,19.9961932 C16.5521642,19.8645429 20.0000001,16.3349162 20.0000001,12 L20.0000001,12 L19.9961933,11.7508206 C19.864543,7.44783584 16.3349163,4 12.0000001,4 Z M12,8 C14.209139,8 16,9.790861 16,12 C16,14.209139 14.209139,16 12,16 C9.790861,16 8,14.209139 8,12 C8,9.790861 9.790861,8 12,8 Z" id="Fill" fill="white"></path>
        </g>
    </g>
</svg>