<?xml version="1.0" encoding="UTF-8"?>
<svg width="20px" height="20px" viewBox="0 0 20 20" version="1.1" xmlns="http://www.w3.org/2000/svg" xmlns:xlink="http://www.w3.org/1999/xlink">
    <title>Fill</title>
    <g id="Symbols" stroke="none" stroke-width="1" fill="none" fill-rule="evenodd">
        <g id="Icon/Settings-2/Fill" transform="translate(-2.000000, -2.000000)" fill="#1E90FF">
            <path d="M12.9998372,1.99999332 C13.9080912,2.02694332 14.630311,2.77117532 14.6299972,3.67983332 L14.6299972,3.67983332 L14.6299972,4.70999748 C14.6410512,4.84108548 14.7267362,4.95403238 14.8499972,4.99999332 L14.8499972,4.99999332 L14.928621,5.03842032 C15.0375792,5.07684732 15.1600419,5.06403832 15.2599971,4.99999332 L15.2599971,4.99999332 L16.0299971,4.25999747 L16.0299971,4.25999747 L16.038275,4.25171961 C16.692735,3.60183355 17.750109,3.60554055 18.399995,4.25999755 L18.399995,4.25999755 L19.740005,5.63000751 C20.059426,5.94362851 20.2395628,6.37235951 20.24,6.82000751 L20.24,6.82000751 L20.2320852,6.98584029 C20.1940843,7.36984518 20.0206894,7.73000221 19.7399999,7.99999332 L19.7399999,7.99999332 L18.93,8.74 C18.8570174,8.852536 18.8570174,8.997464 18.93,9.11 L18.93,9.11 L18.9633333,9.18134259 C19.0244444,9.29361111 19.1133333,9.37 19.23,9.37 L19.23,9.37 L20.3199688,9.36999845 C21.2494228,9.37547845 22.0000013,10.1304985 22.0000013,11.0599685 L22.0000013,11.0599685 L22.0000013,12.9999933 C21.9952088,13.901023 21.2804618,14.6378314 20.3799988,14.669998 L20.3799988,14.669998 L19.2899988,14.669998 C19.1589108,14.681052 19.0459639,14.766737 19.0000013,14.889998 L19.0000013,14.889998 L18.9649684,14.9608884 C18.9299356,15.0592095 18.9416132,15.1699692 19.0000013,15.259998 L19.0000013,15.259998 L19.7299988,15.989998 C19.7327678,15.9927476 19.7355271,15.9955069 19.7382767,15.9982759 C20.3881619,16.6527359 20.3844559,17.7101099 19.7299989,18.3599959 L19.7299989,18.3599959 L18.3899989,19.6999959 C18.0801009,20.0188459 17.6546349,20.1991285 17.2099989,20.1999959 L17.2099989,20.1999959 L17.043652,20.1897409 C16.6584961,20.1471879 16.2971262,19.9754722 16.0199988,19.6999959 L16.0199988,19.6999959 L15.259999,18.9299961 C15.147463,18.8570135 15.002535,18.8570135 14.889999,18.9299961 L14.889999,18.9299961 L14.8186564,18.9633294 C14.7063879,19.0244405 14.629999,19.1133294 14.629999,19.2299961 L14.629999,19.2299961 L14.629999,20.3199961 C14.624499,21.2494501 13.869469,21.9999933 12.939999,21.9999933 L12.939999,21.9999933 L11.0499989,21.9999933 C10.1451069,22.0005561 9.40234632,21.2843101 9.37002892,20.3799961 L9.37002892,20.3799961 L9.37002894,19.2899969 C9.35897494,19.1589089 9.27328994,19.045962 9.15002894,18.9999933 L9.15002894,18.9999933 L9.07140509,18.96157 C8.96244689,18.9231467 8.83998417,18.9359545 8.74002897,18.9999933 L8.74002897,18.9999933 L7.97002899,19.7399969 C7.96727938,19.7427658 7.96452008,19.7455251 7.96175113,19.7482748 C7.30729113,20.3981609 6.24991713,20.3944539 5.60003113,19.7399969 L5.60003113,19.7399969 L4.26003113,18.3799969 C3.93965513,18.0670239 3.75933955,17.6378729 3.76003113,17.1899969 L3.76003113,17.1899969 L3.77028617,17.0236498 C3.8128392,16.6384943 3.98455488,16.2771233 4.26003113,15.9999933 L4.26003113,15.9999933 L5.07003127,15.2599962 C5.14301387,15.1474602 5.14301387,15.0025322 5.07003127,14.8899962 L5.07003127,14.8899962 L5.03669794,14.8186536 C4.97558682,14.7063851 4.88669794,14.6299962 4.77003127,14.6299962 L4.77003127,14.6299962 L3.68003127,14.6299962 C2.75057727,14.6245162 2.00000127,13.8694962 2.00000127,12.9400262 L2.00000127,12.9400262 L2.00000127,11.0499969 C2.00000127,10.1221589 2.75216327,9.3699969 3.68000127,9.36999686 L3.68000127,9.36999686 L4.71000134,9.36999686 C4.84108934,9.35894286 4.95403624,9.27325786 5.00000127,9.14999686 L5.00000127,9.14999686 L5.0384263,9.07137302 C5.07685133,8.96241482 5.06404299,8.8399521 5.00000127,8.7399969 L5.00000127,8.7399969 L4.22142282,7.96141841 C3.57998722,7.29867841 3.59725922,6.24143341 4.26000122,5.59999841 L4.26000122,5.59999841 L5.63000126,4.25999837 C5.93989926,3.94114837 6.36536526,3.76086582 6.81000126,3.75999837 L6.81000126,3.75999837 L6.97634809,3.77025341 C7.361504,3.81280643 7.72287387,3.98452212 8.00000127,4.25999837 L8.00000127,4.25999837 L8.73983718,5.06999331 C8.85237318,5.14297592 8.99730118,5.14297592 9.10983718,5.06999332 L9.10983718,5.06999332 L9.18117978,5.03665998 C9.2934483,4.97554887 9.36983719,4.88665998 9.36983719,4.76999332 L9.36983719,4.76999332 L9.36983719,3.67999332 C9.37533719,2.75053932 10.1303672,1.99999332 11.0598372,1.99999332 L11.0598372,1.99999332 Z M11.9999998,8.5 C10.0669998,8.5 8.49999985,10.067 8.49999985,12 C8.49999985,13.933 10.0669998,15.5 11.9999998,15.5 L11.9999998,15.5 L12.1920354,15.4948211 C14.0357254,15.3951267 15.4999998,13.8685667 15.4999998,12 L15.4999998,12 L15.494821,11.8079645 C15.3951265,9.96427444 13.8685665,8.5 11.9999998,8.5 Z M13.0607,10.9393 C13.646486,11.525086 13.646486,12.47483 13.0607,13.06062 C12.474914,13.646406 11.52517,13.646406 10.93938,13.06062 C10.353594,12.474834 10.353594,11.52509 10.93938,10.9393 C11.525166,10.353514 12.47491,10.353514 13.0607,10.9393 Z" id="Fill"></path>
        </g>
    </g>
</svg>