<?xml version="1.0" encoding="UTF-8"?>
<svg width="18px" height="17px" viewBox="0 0 18 17" version="1.1" xmlns="http://www.w3.org/2000/svg" xmlns:xlink="http://www.w3.org/1999/xlink">
    <title>Fill</title>
    <g id="Symbols" stroke="none" stroke-width="1" fill="none" fill-rule="evenodd">
        <g id="Icon/Text" transform="translate(-3.000000, -4.000000)" fill="white">
            <path d="M20,4 L3.99999996,4 L3.99999996,4 C3.44771496,4 2.99999996,4.447715 2.99999996,5 C2.99999996,5 2.99999996,5 2.99999996,5 L2.99999996,8 L2.99999996,8 C2.99999996,8.55228515 3.44771496,9 3.99999996,9 C4.55228496,9 4.99999996,8.55228515 4.99999996,8 L4.99999996,6 L11,6 L11,19 L8.99999996,19 L8.99999996,19 C8.44771491,19 7.99999996,19.4477152 7.99999996,20 C7.99999996,20.5522852 8.44771491,21 8.99999996,21 L15,21 L15,21 C15.5522849,21 16,20.5522852 16,20 C16,19.4477152 15.5522849,19 15,19 L13,19 L13,6 L19,6 L19,8 L19,8 C19,8.5522853 19.4477149,9 20,9 C20.5522849,9 21,8.5522853 21,8 L21,5 L21,5 C21,4.4477153 20.5522849,4 20,4 L20,4 Z" id="Fill"></path>
        </g>
    </g>
</svg>