<?xml version="1.0" encoding="UTF-8"?>
<svg width="11px" height="7px" viewBox="0 0 11 7" version="1.1" xmlns="http://www.w3.org/2000/svg" xmlns:xlink="http://www.w3.org/1999/xlink">
    <title>Fill</title>
    <g id="Symbols" stroke="none" stroke-width="1" fill="none" fill-rule="evenodd">
        <g id="Icon/Chevron-Down" transform="translate(-7.000000, -9.000000)" fill="#1E90FF">
            <path d="M12,15.5000167 L12,15.5000167 C11.734197,15.5015368 11.478719,15.397187 11.29,15.21 L7.28999998,11.21 L7.28999998,11.21 C6.89787798,10.817878 6.89787798,10.18212 7.28999999,9.79 C7.68212199,9.397878 8.31787999,9.397878 8.70999999,9.79 L12,13.1 L15.3,9.92 L15.2999999,9.92000006 C15.6693059,9.50935206 16.3015799,9.47583706 16.7122299,9.84514276 C17.1228779,10.2144488 17.1563929,10.8467228 16.7870872,11.2573728 C16.7539809,11.2941853 16.7181864,11.3284883 16.6799992,11.3599988 L12.6799992,15.2199988 L12.6799992,15.2199988 C12.4971242,15.3963138 12.2540022,15.4964228 11.9999992,15.5000167 L12,15.5000167 Z" id="Fill" fill="white"></path>
        </g>
    </g>
</svg>