<?xml version="1.0" encoding="UTF-8"?>
<svg width="16px" height="20px" viewBox="0 0 16 20" version="1.1" xmlns="http://www.w3.org/2000/svg" xmlns:xlink="http://www.w3.org/1999/xlink">
    <title>Fill</title>
    <g id="Symbols" stroke="none" stroke-width="1" fill="none" fill-rule="evenodd">
        <g id="Icon/File-Text/Fill" transform="translate(-4.000000, -2.000000)" fill="#1E90FF">
            <path d="M19.74,7.33 L15.3,2.33 L15.3,2.33000001 C15.110941,2.12052101 14.842178,2.00066701 14.56,1.99981627 L6.56000001,1.99981627 L6.55999996,1.99981627 C5.16281996,1.98333441 4.01666996,3.10246001 3.99999568,4.49964001 C3.99999568,4.49975859 3.99999568,4.49987716 3.99999568,4.49999574 L3.99999568,19.4999957 L3.99999568,19.4999903 C4.01646188,20.8971703 5.16245568,22.0164703 6.55963568,22.0001799 C6.55975423,22.0001799 6.55987279,22.0001799 6.55999134,22.0001799 L17.4399913,22.0001799 L17.4399912,22.0001799 C18.8371712,22.0166647 19.9833212,20.897536 19.9999957,19.500356 C19.9999957,19.5002356 19.9999957,19.5001152 19.9999957,19.4999947 L19.9999957,7.99999473 L19.9999957,7.99999864 C19.9993495,7.75216264 19.906695,7.51339664 19.7399985,7.32999764 L19.74,7.33 Z M8.99999991,12 L11.9999999,12 L11.9999999,12 C12.552285,12 12.9999999,12.447715 12.9999999,13 C12.9999999,13.552285 12.552285,14 11.9999999,14 L8.99999991,14 L8.99999991,14 C8.44771491,14 7.99999991,13.552285 7.99999991,13 C7.99999991,12.447715 8.44771491,12 8.99999991,12 L8.99999991,12 Z M15,18 L8.99999996,18 L8.99999996,18 C8.44771496,18 7.99999996,17.552285 7.99999996,17 C7.99999996,16.447715 8.44771496,16 8.99999996,16 L15,16 L15,16 C15.5522849,16 16,16.447715 16,17 C16,17.552285 15.5522849,18 15,18 L15,18 Z M14.71,8 L14.71,8 C14.281099,7.9577648 13.965193,7.579568 14,7.15 L14,4 L17.74,8 L14.71,8 Z" id="Fill"></path>
        </g>
    </g>
</svg>