<?xml version="1.0" encoding="UTF-8"?>
<svg width="20px" height="20px" viewBox="0 0 20 20" version="1.1" xmlns="http://www.w3.org/2000/svg" xmlns:xlink="http://www.w3.org/1999/xlink">
    <title>Fill</title>
    <g id="Symbols" stroke="none" stroke-width="1" fill="none" fill-rule="evenodd">
        <g id="Icon/Trash-2/Line" transform="translate(-2.000000, -2.000000)" fill="#1E90FF">
            <path d="M13.6588772,1.99976738 C14.9207691,2.03884165 15.9531083,3.05041515 15.9999998,4.32999915 L15.9999998,4.32999915 L15.9999998,6 L20.9999998,5.9999996 C21.5522846,5.9999996 21.9999998,6.4477146 21.9999998,6.9999996 C21.9999998,7.5522846 21.5522846,7.99999963 20.9999998,7.9999996 L20.9999998,7.9999996 L19.9999998,7.9999996 L19.9999998,18.9999996 C19.9999998,20.6568496 18.6568497,21.9999996 16.9999998,21.9999996 L16.9999998,21.9999996 L6.99999982,21.9999996 C5.34314982,21.9999996 3.99999982,20.6568496 3.99999982,18.9999996 L3.99999982,18.9999996 L3.99999982,7.99999915 L2.99999982,7.99999915 C2.44771482,7.99999915 1.99999982,7.55228415 1.99999982,6.99999915 C1.99999982,6.44771415 2.44771482,5.99999917 2.99999982,5.99999915 L2.99999982,5.99999915 L7.99999982,5.99999915 L7.99999982,4.32999915 C8.04884986,2.99709915 9.16695986,1.95501265 10.4999998,1.99999915 Z M18,8 L5.99999996,8 L5.99999996,19 L5.99999996,19 L6.00672768,19.1166212 C6.06449276,19.61396 6.48716388,20 6.99999996,20 L6.99999996,20 L17,20 C17.552285,20 18,19.552285 18,19 L18,19 L18,8 Z M8.99999996,11 C9.55228496,11 9.99999996,11.447715 9.99999996,12 L9.99999996,12 L9.99999996,16 C9.99999996,16.552285 9.55228496,17 8.99999996,17 L8.99999996,17 L8.88337878,16.9932723 C8.38603993,16.9355072 7.99999996,16.5128362 7.99999996,16 L7.99999996,16 L7.99999996,12 C7.99999996,11.447715 8.44771496,11 8.99999996,11 Z M15,11 C15.552285,11 16,11.447715 16,12 L16,12 L16,16 C16,16.552285 15.552285,17 15,17 L15,17 L14.8833788,16.9932723 C14.3860399,16.9355072 14,16.5128362 14,16 L14,16 L14,12 C14,11.447715 14.447715,11 15,11 Z M13.5,4 L10.5,4 C10.21,4 10,4.17 10,4.33 L10,4.33 L10,6 L14,6 L14,4.33 C14,4.17 13.79,4 13.5,4 L13.5,4 Z" id="Fill"></path>
        </g>
    </g>
</svg>