<?xml version="1.0" encoding="UTF-8"?>
<svg width="12px" height="8px" viewBox="0 0 12 8" version="1.1" xmlns="http://www.w3.org/2000/svg" xmlns:xlink="http://www.w3.org/1999/xlink">
    <title>Fill</title>
    <g id="Symbols" stroke="none" stroke-width="1" fill="none" fill-rule="evenodd">
        <g id="Icon/Chevron-Up" transform="translate(-6.000000, -8.000000)" fill="#FFFFFF" stroke="#1E90FF">
            <path d="M16,14.5000167 L16,14.5000167 C15.734197,14.5015368 15.478719,14.397187 15.29,14.21 L12,10.9 L8.69999998,14.08 L8.69999999,14.08 C8.30996299,14.467724 7.68003999,14.467724 7.28999999,14.08 L7.29000001,14.08 C6.89787801,13.69108 6.89528201,13.05792 7.28420164,12.6658 C7.28612648,12.6638593 7.28805927,12.6619265 7.28999996,12.6600017 L11.29,8.80000171 L11.29,8.80000169 C11.678844,8.41885869 12.30116,8.41885869 12.69,8.80000173 L16.69,12.8000017 L16.69,12.8000018 C17.082122,13.1889218 17.084718,13.8220818 16.6957983,14.2142018 C16.6938734,14.2161425 16.6919406,14.2180753 16.6899999,14.2200001 L16.69,14.2200001 C16.504623,14.3986811 16.25747,14.4989751 16,14.5000167 L16,14.5000167 Z" id="Fill"></path>
        </g>
    </g>
</svg>