<?xml version="1.0" encoding="UTF-8"?>
<svg width="20px" height="14px" viewBox="0 0 20 14" version="1.1" xmlns="http://www.w3.org/2000/svg" xmlns:xlink="http://www.w3.org/1999/xlink">
    <title>Fill</title>
    <g id="Symbols" stroke="none" stroke-width="1" fill="none" fill-rule="evenodd">
        <g id="Icon/Eye/Line" transform="translate(-2.000000, -5.000000)" fill="#1E90FF">
            <path d="M11.73,5 C17.71,4.82 21.23,10.39 21.87,11.5 C22.048633,11.809401 22.048633,12.190599 21.87,12.5 L21.87,12.5 L21.8105816,12.6025067 C20.8693384,14.2090737 17.6797826,18.8630434 12.27,19 L12.27,19 L12.02,19 C6.12999998,19 2.75999998,13.59 2.12999998,12.5 C1.95136702,12.190599 1.95136702,11.809401 2.13000002,11.5 L2.13000002,11.5 L2.19004253,11.3974932 C3.14023157,9.79092628 6.32021739,5.13695652 11.73,5 Z M12.1489866,6.99879844 L11.83,7 C7.83,7.1 5.22,10.39 4.22,12 C5.1,13.41 7.91,17.1 12.22,17 C16.22,16.9 18.8,13.61 19.83,12 C18.94,10.59 16.12,6.89 11.83,7 Z M11.9999998,8.5 L12.1920354,8.50517885 C14.0357254,8.60487334 15.4999998,10.1314335 15.4999998,12 L15.4999998,12 L15.494821,12.1920355 C15.3951265,14.0357256 13.8685665,15.5 11.9999998,15.5 C10.0669998,15.5 8.49999985,13.933 8.49999985,12 C8.49999985,10.067 10.0669998,8.5 11.9999998,8.5 L11.9999998,8.5 Z M11.9999999,10.5 C11.1715729,10.5 10.4999999,11.171573 10.4999999,12 C10.4999999,12.828427 11.1715729,13.5 11.9999999,13.5 L11.9999999,13.5 L12.1444599,13.4931334 C12.9051117,13.4204487 13.4999999,12.779696 13.4999999,12 L13.4999999,12 L13.4931334,11.85554 C13.4204486,11.0948882 12.7796959,10.5 11.9999999,10.5 Z" id="Fill"></path>
        </g>
    </g>
</svg>