<?xml version="1.0" encoding="UTF-8"?>
<svg width="22px" height="29px" viewBox="0 0 22 29" version="1.1" xmlns="http://www.w3.org/2000/svg" xmlns:xlink="http://www.w3.org/1999/xlink">
    <title>enhant/Icon/Whitelist</title>
    <g id="Options-Page" stroke="none" stroke-width="1" fill="none" fill-rule="evenodd">
        <g id="Options" transform="translate(-29.000000, -103.000000)">
            <g id="side-nav" transform="translate(0.000000, 86.000000)">
                <g id="enhant/Icon/Whitelist" transform="translate(24.000000, 16.000000)">
                    <polygon id="24pt-Bounding-Box" opacity="0" fill-rule="nonzero" points="0 0 32 0 32 32 0 32"></polygon>
                    <path d="M9.33333333,2.66666667 L9.33333333,4.66666667 C9.33333333,4.90059738 9.37349579,5.12514765 9.44730155,5.33379832 L8.5,5.33333333 C8.25454011,5.33333333 8.05039163,5.51020849 8.00805567,5.7434577 L8,5.83333333 L8,26.1666667 C8,26.4121266 8.17687516,26.616275 8.41012437,26.658611 L8.5,26.6666667 L23.5,26.6666667 C23.7454599,26.6666667 23.9496084,26.4897915 23.9919443,26.2565423 L24,26.1666667 L24,5.83333333 C24,5.55719096 23.7761424,5.33333333 23.5,5.33333333 L22.5526984,5.33379832 C22.6080528,5.17731031 22.6444827,5.01187879 22.6592381,4.84025401 L22.6666667,4.66666667 L22.6663333,2.66666667 L24.1666667,2.66666667 C25.5473785,2.66666667 26.6666667,3.78595479 26.6666667,5.16666667 L26.6666667,26.8333333 C26.6666667,28.2140452 25.5473785,29.3333333 24.1666667,29.3333333 L7.83333333,29.3333333 C6.45262146,29.3333333 5.33333333,28.2140452 5.33333333,26.8333333 L5.33333333,5.16666667 C5.33333333,3.78595479 6.45262146,2.66666667 7.83333333,2.66666667 L9.33333333,2.66666667 Z M10.6666667,22.6666667 C11.4030463,22.6666667 12,23.2636203 12,24 C12,24.7363797 11.4030463,25.3333333 10.6666667,25.3333333 C9.930287,25.3333333 9.33333333,24.7363797 9.33333333,24 C9.33333333,23.2636203 9.930287,22.6666667 10.6666667,22.6666667 Z M21.6666667,22.6666667 C22.2189514,22.6666667 22.6666667,23.1143819 22.6666667,23.6666667 L22.6666667,24.3333333 C22.6666667,24.8856181 22.2189514,25.3333333 21.6666667,25.3333333 L14.3333333,25.3333333 C13.7810486,25.3333333 13.3333333,24.8856181 13.3333333,24.3333333 L13.3333333,23.6666667 C13.3333333,23.1143819 13.7810486,22.6666667 14.3333333,22.6666667 L21.6666667,22.6666667 Z M10.6666667,17.3333333 C11.4030463,17.3333333 12,17.930287 12,18.6666667 C12,19.4030463 11.4030463,20 10.6666667,20 C9.930287,20 9.33333333,19.4030463 9.33333333,18.6666667 C9.33333333,17.930287 9.930287,17.3333333 10.6666667,17.3333333 Z M19,17.3333333 C19.5522847,17.3333333 20,17.7810486 20,18.3333333 L20,19 C20,19.5522847 19.5522847,20 19,20 L14.3333333,20 C13.7810486,20 13.3333333,19.5522847 13.3333333,19 L13.3333333,18.3333333 C13.3333333,17.7810486 13.7810486,17.3333333 14.3333333,17.3333333 L19,17.3333333 Z M19.653385,9.32986412 L19.8890873,9.56556638 C20.0843494,9.76082853 20.0843494,10.077411 19.8890873,10.2726732 L15.1750421,14.9867184 L15.1750421,14.9867184 L14.9393398,15.2224206 C14.7440777,15.4176828 14.4274952,15.4176828 14.232233,15.2224206 L12.1109127,13.1011003 C11.9156506,12.9058381 11.9156506,12.5892557 12.1109127,12.3939935 L12.346615,12.1582912 C12.5418771,11.9630291 12.8584596,11.9630291 13.0537217,12.1582912 L14.5850793,13.6901202 L18.9462783,9.32986412 C19.1415404,9.13460197 19.4581229,9.13460197 19.653385,9.32986412 Z M20,1.33333333 C21.1045695,1.33333333 22,2.22876383 22,3.33333333 L22,4.66666667 C22,5.77123617 21.1045695,6.66666667 20,6.66666667 L12,6.66666667 C10.8954305,6.66666667 10,5.77123617 10,4.66666667 L10,3.33333333 C10,2.22876383 10.8954305,1.33333333 12,1.33333333 L20,1.33333333 Z" id="Combined-Shape" fill="#FFFFFF" fill-rule="evenodd"></path>
                </g>
            </g>
        </g>
    </g>
</svg>