<?xml version="1.0" encoding="UTF-8"?>
<svg width="20px" height="12px" viewBox="0 0 20 12" version="1.1" xmlns="http://www.w3.org/2000/svg" xmlns:xlink="http://www.w3.org/1999/xlink">
    <title>enhant/Icon/Logo</title>
    <g id="Symbols" stroke="none" stroke-width="1" fill="none" fill-rule="evenodd">
        <g id="enhant/Toolbar-w-Logo/Horizontal/On-Start-Click/Minimal" transform="translate(-10.000000, -14.000000)">
            <g id="enhant/Toolbar/Horizontal">
                <g id="Functions" transform="translate(8.000000, 4.000000)">
                    <g id="enhant/Icon/Logo" transform="translate(0.000000, 4.000000)">
                        <polygon id="24pt-Bounding-Box" opacity="0" fill-rule="nonzero" points="0 0 24 0 24 24 0 24"></polygon>
                        <path d="M5.38078292,18 C6.00711744,18 6.52787663,17.9087036 6.9430605,17.7261108 C7.35824437,17.543518 7.70106762,17.2696287 7.97153025,16.9044431 C8.24199288,16.5392575 8.41399763,16.195983 8.48754448,15.8746196 C8.56109134,15.5532562 8.59786477,15.0931223 8.59786477,14.4942179 L8.59786477,14.4942179 L8.59786477,13.778454 L5.87188612,13.778454 L5.87188612,15.0566038 C5.87188612,15.5386488 5.83511269,15.863664 5.76156584,16.0316494 C5.68801898,16.1996348 5.54211151,16.2836275 5.32384342,16.2836275 C5.14827995,16.2836275 5.02965599,16.2203287 4.96797153,16.093731 C4.90628707,15.9671333 4.87544484,15.6847231 4.87544484,15.2465003 L4.87544484,15.2465003 L4.87544484,13.1503348 L8.59786477,13.1503348 L8.59786477,11.8648813 C8.59786477,10.9251369 8.49228944,10.195983 8.28113879,9.67741935 C8.06998814,9.15885575 7.70225386,8.74254413 7.17793594,8.42848448 C6.65361803,8.11442483 5.9881376,7.95739501 5.18149466,7.95739501 C4.52194543,7.95739501 3.93831554,8.08764455 3.43060498,8.34814364 C2.92289442,8.60864273 2.55753262,8.98356665 2.33451957,9.4729154 C2.11150652,9.96226415 2,10.6305539 2,11.4777845 L2,11.4777845 L2,14.3043214 C2,15.0249544 2.04982206,15.5739501 2.14946619,15.9513086 C2.24911032,16.3286671 2.4282325,16.6743761 2.68683274,16.9884358 C2.94543298,17.3024954 3.30723606,17.5496044 3.77224199,17.7297626 C4.23724792,17.9099209 4.77342823,18 5.38078292,18 Z M5.71530249,11.5727328 L4.87544484,11.5727328 L4.87544484,10.8642727 C4.87544484,10.3189288 4.89916963,9.98417529 4.94661922,9.86001217 C4.9940688,9.73584906 5.11743772,9.6737675 5.31672598,9.6737675 C5.47805457,9.6737675 5.58481613,9.74680463 5.63701068,9.89287888 C5.68920522,10.0389531 5.71530249,10.3627511 5.71530249,10.8642727 L5.71530249,10.8642727 L5.71530249,11.5727328 Z M13.3309609,17.8247109 L13.3309609,16.2836275 C12.9134045,16.2836275 12.6465006,16.2617164 12.5302491,16.2178941 C12.4139976,16.1740718 12.3345196,16.08521 12.2918149,15.9513086 C12.2491103,15.8174072 12.227758,15.4802191 12.227758,14.9397444 L12.227758,14.9397444 L12.227758,8.88496652 C12.227758,8.30553865 12.2550415,7.95374315 12.3096085,7.82958004 C12.3641756,7.70541692 12.4495848,7.62629337 12.5658363,7.59220937 C12.6820878,7.55812538 12.9371293,7.54108338 13.3309609,7.54108338 L13.3309609,7.54108338 L13.3309609,6 L12.4270463,6 C11.6109134,6 11.0011862,6.07790627 10.5978648,6.23371881 C10.1945433,6.38953135 9.9311981,6.62325015 9.80782918,6.93487523 C9.68446026,7.2465003 9.6227758,7.89896531 9.6227758,8.89227024 L9.6227758,8.89227024 L9.6227758,14.9324407 C9.6227758,15.9306147 9.6856465,16.5830797 9.8113879,16.8898357 C9.9371293,17.1965916 10.1957295,17.4290931 10.5871886,17.5873402 C10.9786477,17.7455873 11.5919336,17.8247109 12.4270463,17.8247109 L12.4270463,17.8247109 L13.3309609,17.8247109 Z M18.0355872,17.8247109 L18.0355872,16.2617164 C17.5658363,16.2617164 17.2989324,16.2251978 17.2348754,16.1521607 C17.1708185,16.0791236 17.13879,15.7236762 17.13879,15.0858186 L17.13879,15.0858186 L17.13879,9.90018259 L17.9145907,9.90018259 L17.9145907,8.36640292 L17.13879,8.36640292 L17.13879,6.83992696 L14.2562278,6.83992696 L14.2562278,8.36640292 L13.6370107,8.36640292 L13.6370107,9.90018259 L14.2562278,9.90018259 L14.2562278,14.822885 C14.2562278,15.786975 14.282325,16.3992696 14.3345196,16.6597687 C14.3867141,16.9202678 14.519573,17.151552 14.7330961,17.3536214 C14.9466192,17.5556908 15.1933571,17.6847231 15.4733096,17.7407182 C15.7532622,17.7967133 16.2206406,17.8247109 16.8754448,17.8247109 L16.8754448,17.8247109 L18.0355872,17.8247109 Z M19.1957295,17.8247109 C20.0308422,17.8247109 20.6453144,17.7455873 21.0391459,17.5873402 C21.4329775,17.4290931 21.6915777,17.1965916 21.8149466,16.8898357 C21.9383155,16.5830797 22,15.9306147 22,14.9324407 L22,14.9324407 L22,8.89227024 C22,7.89896531 21.9383155,7.2465003 21.8149466,6.93487523 C21.6915777,6.62325015 21.4282325,6.38953135 21.024911,6.23371881 C20.6215896,6.07790627 20.0118624,6 19.1957295,6 L19.1957295,6 L18.2918149,6 L18.2918149,7.54108338 C18.6856465,7.54108338 18.940688,7.55812538 19.0569395,7.59220937 C19.173191,7.62629337 19.2597865,7.70541692 19.316726,7.82958004 C19.3736655,7.95374315 19.4021352,8.30553865 19.4021352,8.88496652 L19.4021352,8.88496652 L19.4021352,14.9397444 C19.4021352,15.4802191 19.3795967,15.8174072 19.3345196,15.9513086 C19.2894425,16.08521 19.2099644,16.1740718 19.0960854,16.2178941 C18.9822064,16.2617164 18.7141163,16.2836275 18.2918149,16.2836275 L18.2918149,16.2836275 L18.2918149,17.8247109 L19.1957295,17.8247109 Z" id="Fill" fill="gray" fill-rule="evenodd"></path>
                    </g>
                </g>
            </g>
        </g>
    </g>
</svg>