<?xml version="1.0" encoding="UTF-8"?>
<svg width="16px" height="22px" viewBox="0 0 16 22" version="1.1" xmlns="http://www.w3.org/2000/svg" xmlns:xlink="http://www.w3.org/1999/xlink">
    <title>Fill</title>
    <g id="Symbols" stroke="none" stroke-width="1" fill="none" fill-rule="evenodd">
        <g id="Icon/Flash/Fill" transform="translate(-4.000000, -1.000000)" fill="#1E90FF">
            <path d="M11.11,23.0000012 L11.1099999,23.0000012 C10.9940449,23.0000012 10.8789979,22.9795611 10.7699999,22.9400001 L10.77,22.9400001 C10.337291,22.7815651 10.068867,22.3479571 10.12,21.8900001 L10.89,14.8000001 L5.00000002,14.8000001 L5.00000005,14.8000001 C4.44771605,14.8008331 3.99933005,14.3537931 3.99848892,13.8015091 C3.99818824,13.6013951 4.05793275,13.4057931 4.16999705,13.2400001 L12.0599971,1.44000013 L12.0599971,1.44000006 C12.3167431,1.06006106 12.7990001,0.903430063 13.2299971,1.06000006 L13.229997,1.06000004 C13.643487,1.21351004 13.907573,1.61979604 13.879997,2.06000004 L13.109997,9.20000004 L18.999997,9.20000004 L18.999997,9.20000004 C19.552281,9.19916711 20.000667,9.64620704 20.0015082,10.198491 C20.0018088,10.398605 19.9420642,10.594207 19.83,10.76 L11.94,22.56 L11.94,22.5600001 C11.75373,22.8355791 11.442626,23.0005011 11.11,23.0000012 L11.11,23.0000012 Z" id="Fill"></path>
        </g>
    </g>
</svg>