<svg xmlns="http://www.w3.org/2000/svg" width="20" height="20" viewBox="0 0 20 20">
  <g fill="#1E90FF" fill-rule="evenodd">
    <path d="M10,0 L10,0 C4.47715,0 0,4.47715 0,10 C0,15.52285 4.47715,20 10,20 C15.52285,20 20,15.52285 20,10 L20,10 C20,4.47715044 15.52285,0 10,0 L10,0 Z M10.0000001,18 L10.0000001,18 C5.58172009,18 2.00000009,14.41828 2.00000009,10 C2.00000009,5.58172 5.58172009,2 10.0000001,2 C14.4182801,2 18.0000001,5.58172 18.0000001,10 L18.0000001,10 C18.0000001,14.41828 14.4182801,18 10.0000001,18 C10.0000001,18 10.0000001,18 10.0000001,18 L10.0000001,18 Z"/>
    <circle cx="10" cy="10" r="6">
      <animate
        attributeName="fill"
        values="#1E90FF;transparent"
        begin="0s"
        dur="1s"
        calcMode="discrete"
        repeatCount="indefinite"
      />
    </circle>
  </g>
</svg>
