<?xml version="1.0" encoding="UTF-8"?>
<svg width="14px" height="18px" viewBox="0 0 14 18" version="1.1" xmlns="http://www.w3.org/2000/svg" xmlns:xlink="http://www.w3.org/1999/xlink">
    <title>Fill</title>
    <g id="Symbols" stroke="none" stroke-width="1" fill="none" fill-rule="evenodd">
        <g id="Icon/Bookmark/Fill" transform="translate(-5.000000, -3.000000)" fill="#1E90FF">
            <path d="M6,20.9999993 L5.99999996,20.9999993 C5.82821196,20.9994743 5.65945596,20.9547023 5.50999996,20.87 L5.50999987,20.8699999 C5.19551287,20.6932259 5.00062187,20.3607639 4.99999987,19.9999993 L4.99999987,5.32999995 L4.99999985,5.32999932 C4.97186835,4.08204932 5.95248885,3.04347932 7.19999985,2.99999932 L16.7999999,2.99999932 L16.7999998,2.99999932 C18.0475098,3.04348152 19.0281298,4.08204932 18.9999998,5.32999932 L18.9999998,19.9999993 L18.9999998,19.9999993 C18.9978585,20.3551042 18.8075488,20.6824422 18.5000048,20.8599962 L18.5000049,20.8599962 C18.1906039,21.0386292 17.8094059,21.0386292 17.5000049,20.8599962 L11.8300049,17.6499962 L6.50000487,20.8499962 L6.50000493,20.8499962 C6.34955693,20.9433848 6.17700893,20.9951492 5.99999993,20.9999993 L6,20.9999993 Z" id="Fill"></path>
        </g>
    </g>
</svg>