<?xml version="1.0" encoding="UTF-8"?>
<svg width="20px" height="18px" viewBox="0 0 20 18" version="1.1" xmlns="http://www.w3.org/2000/svg" xmlns:xlink="http://www.w3.org/1999/xlink">
    <title>Fill</title>
    <g id="Symbols" stroke="none" stroke-width="1" fill="none" fill-rule="evenodd">
        <g id="Icon/Camera/Fill" transform="translate(-2.000000, -3.000000)" fill="#1E90FF">
            <path d="M13.4999998,3 C14.88071,3 15.9999998,4.11929 15.9999998,5.5 L15.9999998,5.5 L15.9999998,7 L18.9999998,7 C20.6568496,7 21.9999998,8.34314955 21.9999998,10 L21.9999998,10 L21.9999998,18 C21.9999998,19.6568495 20.6568496,21 18.9999998,21 L18.9999998,21 L4.99999976,21 C3.34314976,21 1.99999976,19.6568495 1.99999976,18 L1.99999976,18 L1.99999976,10 L1.99999976,10 L2.00509247,9.82372764 C2.09633917,8.24892392 3.40232297,7 4.99999976,7 L4.99999976,7 L7.99999976,7 L7.99999976,5.5 L7.99999976,5.5 L8.00531745,5.33562452 C8.08996124,4.03153766 9.17451829,3 10.4999998,3 L10.4999998,3 Z M11.9999998,10.5 C10.0669998,10.5 8.49999985,12.067 8.49999985,14 C8.49999985,15.933 10.0669998,17.5 11.9999998,17.5 L11.9999998,17.5 L12.1920354,17.4948211 C14.0357254,17.3951267 15.4999998,15.8685667 15.4999998,14 L15.4999998,14 L15.494821,13.8079645 C15.3951265,11.9642744 13.8685665,10.5 11.9999998,10.5 Z M13.0607,12.9393 C13.646486,13.525086 13.646486,14.47483 13.0607,15.06062 C12.474914,15.646406 11.52517,15.646406 10.93938,15.06062 C10.353594,14.474834 10.353594,13.52509 10.93938,12.9393 C11.525166,12.353514 12.47491,12.353514 13.0607,12.9393 Z M13.5,5.00000008 L10.5,5.00000008 C10.223858,5.00000008 9.99999998,5.22385808 9.99999998,5.50000008 L9.99999998,5.50000008 L9.99999998,7.00000008 L14,7.00000008 L14,5.50000008 C14,5.22385808 13.776142,5.00000008 13.5,5.00000008 L13.5,5.00000008 Z" id="Fill"></path>
        </g>
    </g>
</svg>