<?xml version="1.0" encoding="UTF-8"?>
<svg width="24px" height="28px" viewBox="0 0 24 28" version="1.1" xmlns="http://www.w3.org/2000/svg" xmlns:xlink="http://www.w3.org/1999/xlink">
    <title>Icon/Calendar/Line</title>
    <g id="enhant-JSON-Viewer" stroke="none" stroke-width="1" fill="none" fill-rule="evenodd">
        <g id="enhant/JSON-Viewer/Meeting-Detail" transform="translate(-28.000000, -168.000000)">
            <g id="side-nav" transform="translate(0.000000, 86.000000)">
                <g id="Icon/Calendar/Line" transform="translate(24.000000, 80.000000)">
                    <polygon id="24pt-Bounding-Box" opacity="0" fill-rule="nonzero" points="0 0 32 0 32 32 0 32"></polygon>
                    <path d="M21.3333333,2.66666667 C22.0697133,2.66666667 22.6666667,3.26362 22.6666667,4 L22.6666667,4 L22.6666667,5.33333333 L23.9999998,5.33333273 C26.209133,5.33333273 27.9999998,7.1241994 27.9999998,9.33333273 L27.9999998,9.33333273 L27.9999998,25.3333327 C27.9999998,27.5424661 26.209133,29.3333327 23.9999998,29.3333327 L23.9999998,29.3333327 L7.99999983,29.3333327 C5.79086649,29.3333327 3.99999983,27.5424661 3.99999983,25.3333327 L3.99999983,25.3333327 L3.99999983,9.33333333 L3.99999983,9.33333333 L4.00489515,9.13369347 C4.10892128,7.01730714 5.85780993,5.33333343 7.99999983,5.33333333 L7.99999983,5.33333333 L9.33333333,5.33333333 L9.33333333,4 C9.33333333,3.26362 9.93028667,2.66666667 10.6666667,2.66666667 C11.4030467,2.66666667 11.9999998,3.26362 11.9999998,4 L11.9999998,4 L11.9999998,5.33333333 L19.9999998,5.33333333 L19.9999998,4 C19.9999998,3.26362 20.5969533,2.66666667 21.3333333,2.66666667 Z M25.3333333,17.3333333 L6.66666661,17.3333333 L6.66666661,25.3333333 L6.66666661,25.3333333 L6.67277023,25.4617423 C6.73737886,26.1378776 7.30693641,26.6666667 7.99999994,26.6666667 L7.99999994,26.6666667 L23.9999999,26.6666667 C24.7363799,26.6666667 25.3333333,26.0697133 25.3333333,25.3333333 L25.3333333,25.3333333 L25.3333333,17.3333333 Z M21.3333332,20 C22.0697132,20 22.6666666,20.5969533 22.6666666,21.3333333 C22.6666666,22.0697133 22.0697132,22.6666667 21.3333332,22.6666667 L21.3333332,22.6666667 L15.9999999,22.6666667 C15.2636199,22.6666667 14.6666666,22.0697133 14.6666666,21.3333333 C14.6666666,20.5969533 15.2636199,20 15.9999999,20 L15.9999999,20 Z M11.60948,20.3905333 C12.1301787,20.911232 12.1301787,21.7554533 11.60948,22.2761467 C11.0887813,22.7968453 10.24456,22.7968453 9.72386667,22.2761467 C9.203168,21.755448 9.203168,20.9112267 9.72386667,20.3905333 C10.2445653,19.8698347 11.0887867,19.8698347 11.60948,20.3905333 Z M9.33333333,8 L7.99999994,8 C7.26361994,8 6.66666661,8.59695394 6.66666661,9.33333394 L6.66666661,9.33333394 L6.66666661,14.6666671 L25.3333333,14.6666671 L25.3333333,9.33333374 C25.3333333,8.59695374 24.7363799,8 23.9999999,8 L23.9999999,8 L22.6666666,8 L22.6666666,9.33333374 C22.6666666,10.0697137 22.0697133,10.666667 21.3333333,10.6666671 C20.5969533,10.6666671 20.0000001,10.0697137 20,9.33333374 L20,9.33333374 L20,8 L12,8 L12,9.33333353 C12,10.0697135 11.4030467,10.6666668 10.6666666,10.6666669 C9.93028667,10.6666669 9.33333344,10.0697135 9.33333333,9.33333353 L9.33333333,9.33333353 L9.33333333,8 Z" id="Fill" fill="#FFFFFF" fill-rule="evenodd"></path>
                </g>
            </g>
        </g>
    </g>
</svg>