<?xml version="1.0" encoding="UTF-8"?>
<svg width="232px" height="232px" viewBox="0 0 232 232" version="1.1" xmlns="http://www.w3.org/2000/svg" xmlns:xlink="http://www.w3.org/1999/xlink">
    <title>Progress Bar</title>
    <g id="Symbols" stroke="none" stroke-width="1" fill="none" fill-rule="evenodd">
        <g id="Chart-Data/Progress-Bar/Fat/Percentage-#4" fill="#1E90FF">
            <path d="M5.67744411,80.1540287 C-9.85197205,127.948657 7.1603714,180.307266 47.8169107,209.845971 C88.4734501,239.384676 143.52655,239.384676 184.183089,209.845971 C224.839629,180.307266 241.851972,127.948657 226.322556,80.1540287 C210.79314,32.3594002 166.254246,0 116,0 C107.715729,0 101,6.71572875 101,15 C101,23.2842712 107.715729,30 116,30 C153.257459,30 186.277673,53.9905898 197.79086,89.4245385 C209.304048,124.858487 196.691449,163.676077 166.549532,185.575462 C136.407615,207.474846 95.5923854,207.474846 65.4504683,185.575462 C35.3085512,163.676077 22.6959518,124.858487 34.2091396,89.4245385 C36.7691202,81.5457283 32.4573569,73.0834164 24.5785468,70.5234358 C16.6997366,67.9634552 8.23742471,72.2752185 5.67744411,80.1540287 Z" id="Progress-Bar"></path>
        </g>
    </g>
</svg>