<?xml version="1.0" encoding="UTF-8"?>
<svg width="24px" height="28px" viewBox="0 0 24 28" version="1.1" xmlns="http://www.w3.org/2000/svg" xmlns:xlink="http://www.w3.org/1999/xlink">
    <title>Icon/Home/Line</title>
    <g id="enhant-JSON-Viewer" stroke="none" stroke-width="1" fill="none" fill-rule="evenodd">
        <g id="enhant/JSON-Viewer/Home" transform="translate(-28.000000, -104.000000)">
            <g id="side-nav" transform="translate(0.000000, 86.000000)">
                <g id="Icon/Home/Line" transform="translate(24.000000, 16.000000)">
                    <polygon id="24pt-Bounding-Box" opacity="0" fill-rule="nonzero" points="0 0 32 0 32 32 0 32"></polygon>
                    <path d="M27.2266667,13.5733333 L16.9466667,3.06666667 L16.9466666,3.06666663 C16.4281066,2.54383729 15.5838933,2.54037596 15.0610666,3.05893561 C15.058479,3.06150207 15.055902,3.06407912 15.0533355,3.06666671 L4.77333553,13.5866667 L4.77333571,13.5866665 C4.27087571,14.0931799 3.99233971,14.7799159 3.99984835,15.4933332 L3.99984835,26.6666665 L3.99984835,26.6666893 C3.99786918,28.0840226 5.10483434,29.255396 6.520029,29.3333293 L25.480029,29.3333293 L25.4800291,29.3333293 C26.8952158,29.2553658 28.0021491,28.0839866 28.0000056,26.6666626 L28.0000056,15.4933293 L28.0000056,15.493297 C28.0010515,14.777209 27.7237438,14.0887503 27.2266465,13.5733103 L27.2266667,13.5733333 Z M13.3333333,26.6666667 L13.3333333,18.6666667 L18.6666667,18.6666667 L18.6666667,26.6666667 L13.3333333,26.6666667 Z M25.3333333,26.6666667 L21.3333333,26.6666667 L21.3333333,17.3333333 L21.3333333,17.3333333 C21.3333333,16.5969533 20.73638,16 20,16 L12,16 L11.9999999,16 C11.2636199,16 10.6666666,16.5969533 10.6666666,17.3333333 C10.6666666,17.3333333 10.6666666,17.3333333 10.6666666,17.3333333 L10.6666666,26.6666667 L6.66666661,26.6666667 L6.66666661,15.44 L15.9999999,5.90666667 L25.3333333,15.4933333 L25.3333333,26.6666667 Z" id="Fill" fill="#FFFFFF" fill-rule="evenodd"></path>
                </g>
            </g>
        </g>
    </g>
</svg>