<?xml version="1.0" encoding="UTF-8"?>
<svg width="125px" height="30px" viewBox="0 0 125 30" version="1.1" xmlns="http://www.w3.org/2000/svg" xmlns:xlink="http://www.w3.org/1999/xlink">
    <title>enhant/Logo</title>
    <g id="Symbols" stroke="none" stroke-width="1" fill="none" fill-rule="evenodd">
        <g id="enhant/Header/Advisor/Logged-In" transform="translate(-171.000000, -26.000000)" fill="#FFFFFF" fill-rule="nonzero">
            <g id="enhant/Logo" transform="translate(170.500000, 19.000000)">
                <path d="M9.60546875,36.421875 C11.1523438,36.421875 12.4384766,36.2021484 13.4638672,35.7626953 C14.4892578,35.3232422 15.3359375,34.6640625 16.0039062,33.7851562 C16.671875,32.90625 17.0966797,32.0800781 17.2783203,31.3066406 C17.4599609,30.5332031 17.5507812,29.4257812 17.5507812,27.984375 L17.5507812,27.984375 L17.5507812,26.2617188 L10.8183594,26.2617188 L10.8183594,29.3378906 C10.8183594,30.4980469 10.7275391,31.2802734 10.5458984,31.6845703 C10.3642578,32.0888672 10.0039062,32.2910156 9.46484375,32.2910156 C9.03125,32.2910156 8.73828125,32.1386719 8.5859375,31.8339844 C8.43359375,31.5292969 8.35742188,30.8496094 8.35742188,29.7949219 L8.35742188,29.7949219 L8.35742188,24.75 L17.5507812,24.75 L17.5507812,21.65625 C17.5507812,19.3945312 17.2900391,17.6396484 16.7685547,16.3916016 C16.2470703,15.1435547 15.3388672,14.1416016 14.0439453,13.3857422 C12.7490234,12.6298828 11.1054688,12.2519531 9.11328125,12.2519531 C7.484375,12.2519531 6.04296875,12.5654297 4.7890625,13.1923828 C3.53515625,13.8193359 2.6328125,14.7216797 2.08203125,15.8994141 C1.53125,17.0771484 1.25585938,18.6855469 1.25585938,20.7246094 L1.25585938,20.7246094 L1.25585938,27.5273438 C1.25585938,29.2617188 1.37890625,30.5830078 1.625,31.4912109 C1.87109375,32.3994141 2.31347656,33.2314453 2.95214844,33.9873047 C3.59082031,34.7431641 4.484375,35.3378906 5.6328125,35.7714844 C6.78125,36.2050781 8.10546875,36.421875 9.60546875,36.421875 Z M10.4316406,20.953125 L8.35742188,20.953125 L8.35742188,19.2480469 C8.35742188,17.9355469 8.41601562,17.1298828 8.53320312,16.8310547 C8.65039062,16.5322266 8.95507812,16.3828125 9.44726562,16.3828125 C9.84570312,16.3828125 10.109375,16.5585938 10.2382812,16.9101562 C10.3671875,17.2617188 10.4316406,18.0410156 10.4316406,19.2480469 L10.4316406,19.2480469 L10.4316406,20.953125 Z M26.9726562,36 L26.9726562,20.2324219 C26.9726562,18.4746094 27.0371094,17.3935547 27.1660156,16.9892578 C27.2949219,16.5849609 27.6113281,16.3828125 28.1152344,16.3828125 C28.5957031,16.3828125 28.8886719,16.5585938 28.9941406,16.9101562 C29.0996094,17.2617188 29.1523438,18.2402344 29.1523438,19.8457031 L29.1523438,19.8457031 L29.1523438,36 L36.2539062,36 L36.2539062,19.6523438 C36.2539062,17.6132812 36.1425781,16.1572266 35.9199219,15.2841797 C35.6972656,14.4111328 35.1992188,13.6875 34.4257812,13.1132812 C33.6523438,12.5390625 32.65625,12.2519531 31.4375,12.2519531 C30.4648438,12.2519531 29.6064453,12.4658203 28.8623047,12.8935547 C28.1181641,13.3212891 27.4882812,13.9628906 26.9726562,14.8183594 L26.9726562,14.8183594 L27.0957031,12.6738281 L19.8710938,12.6738281 L19.8710938,36 L26.9726562,36 Z M45.7988281,36 L45.7988281,19.3535156 C45.7988281,18.1699219 45.875,17.3789062 46.0273438,16.9804688 C46.1796875,16.5820312 46.4726562,16.3828125 46.90625,16.3828125 C47.375,16.3828125 47.6767578,16.5761719 47.8115234,16.9628906 C47.9462891,17.3496094 48.0136719,18.2226562 48.0136719,19.5820312 L48.0136719,19.5820312 L48.0136719,36 L55.1152344,36 L55.1152344,19.9160156 C55.1152344,17.7246094 55.0185547,16.2158203 54.8251953,15.3896484 C54.6318359,14.5634766 54.0986328,13.8339844 53.2255859,13.2011719 C52.3525391,12.5683594 51.2949219,12.2519531 50.0527344,12.2519531 C49.2441406,12.2519531 48.4853516,12.3925781 47.7763672,12.6738281 C47.0673828,12.9550781 46.4082031,13.3769531 45.7988281,13.9394531 L45.7988281,13.9394531 L45.7988281,7.54101562 L38.6972656,7.54101562 L38.6972656,36 L45.7988281,36 Z M62.2167969,36.421875 C63.1660156,36.421875 63.9833984,36.2138672 64.6689453,35.7978516 C65.3544922,35.3818359 65.9140625,34.7578125 66.3476562,33.9257812 L66.3476562,33.9257812 L66.3476562,36 L73.2558594,36 L73.255353,23.8699725 C73.246576,20.2507113 73.1236979,17.8458116 72.8867188,16.6552734 C72.640625,15.4189453 71.9082031,14.3759766 70.6894531,13.5263672 C69.4707031,12.6767578 67.6601562,12.2519531 65.2578125,12.2519531 C63.2539062,12.2519531 61.625,12.6269531 60.3710938,13.3769531 C59.1171875,14.1269531 58.2822266,14.9912109 57.8662109,15.9697266 C57.4501953,16.9482422 57.2421875,18.3398438 57.2421875,20.1445312 L57.2421875,20.1445312 L57.2421875,21.7089844 L63.9042969,21.7089844 L63.9042969,19.265625 C63.9042969,17.9648438 63.9628906,17.1591797 64.0800781,16.8486328 C64.1972656,16.5380859 64.4960938,16.3828125 64.9765625,16.3828125 C65.3984375,16.3828125 65.7001953,16.5673828 65.8818359,16.9365234 C66.0634766,17.3056641 66.1542969,18.0996094 66.1542969,19.3183594 C66.1542969,20.2910156 66.0722656,20.9355469 65.9082031,21.2519531 C65.7441406,21.5683594 64.4960938,22.1835938 62.1640625,23.0976562 C59.984375,23.9414062 58.6191406,24.6796875 58.0683594,25.3125 C57.5175781,25.9453125 57.2421875,27.1347656 57.2421875,28.8808594 L57.2421875,28.8808594 L57.2421875,30.796875 C57.2421875,33.1523438 57.7607422,34.6787109 58.7978516,35.3759766 C59.8349609,36.0732422 60.9746094,36.421875 62.2167969,36.421875 Z M65.0820312,32.2910156 C64.6132812,32.2910156 64.2998047,32.1152344 64.1416016,31.7636719 C63.9833984,31.4121094 63.9042969,30.6328125 63.9042969,29.4257812 C63.9042969,28.3710938 63.9951172,27.5625 64.1767578,27 C64.3583984,26.4375 65.0175781,25.7402344 66.1542969,24.9082031 L66.1542969,24.9082031 L66.1542969,29.7070312 C66.1542969,30.8789062 66.0869141,31.6025391 65.9521484,31.8779297 C65.8173828,32.1533203 65.5273438,32.2910156 65.0820312,32.2910156 Z M82.8007812,36 L82.8007812,20.2324219 C82.8007812,18.4746094 82.8652344,17.3935547 82.9941406,16.9892578 C83.1230469,16.5849609 83.4394531,16.3828125 83.9433594,16.3828125 C84.4238281,16.3828125 84.7167969,16.5585938 84.8222656,16.9101562 C84.9277344,17.2617188 84.9804688,18.2402344 84.9804688,19.8457031 L84.9804688,19.8457031 L84.9804688,36 L92.0820312,36 L92.0820312,19.6523438 C92.0820312,17.6132812 91.9707031,16.1572266 91.7480469,15.2841797 C91.5253906,14.4111328 91.0273438,13.6875 90.2539062,13.1132812 C89.4804688,12.5390625 88.484375,12.2519531 87.265625,12.2519531 C86.2929688,12.2519531 85.4345703,12.4658203 84.6904297,12.8935547 C83.9462891,13.3212891 83.3164062,13.9628906 82.8007812,14.8183594 L82.8007812,14.8183594 L82.9238281,12.6738281 L75.6992188,12.6738281 L75.6992188,36 L82.8007812,36 Z M103.894531,36 L103.894531,32.2910156 C102.863281,32.2910156 102.204102,32.2382812 101.916992,32.1328125 C101.629883,32.0273438 101.433594,31.8134766 101.328125,31.4912109 C101.222656,31.1689453 101.169922,30.3574219 101.169922,29.0566406 L101.169922,29.0566406 L101.169922,14.484375 C101.169922,13.0898438 101.237305,12.2431641 101.37207,11.9443359 C101.506836,11.6455078 101.717773,11.4550781 102.004883,11.3730469 C102.291992,11.2910156 102.921875,11.25 103.894531,11.25 L103.894531,11.25 L103.894531,7.54101562 L101.662109,7.54101562 C99.6464844,7.54101562 98.140625,7.72851562 97.1445312,8.10351562 C96.1484375,8.47851562 95.4980469,9.04101562 95.1933594,9.79101562 C94.8886719,10.5410156 94.7363281,12.1113281 94.7363281,14.5019531 L94.7363281,14.5019531 L94.7363281,29.0390625 C94.7363281,31.4414062 94.8916016,33.0117188 95.2021484,33.75 C95.5126953,34.4882812 96.1513672,35.0478516 97.1181641,35.4287109 C98.0849609,35.8095703 99.5996094,36 101.662109,36 L101.662109,36 L103.894531,36 Z M115.513672,36 L115.513672,32.2382812 C114.353516,32.2382812 113.694336,32.1503906 113.536133,31.9746094 C113.37793,31.7988281 113.298828,30.9433594 113.298828,29.4082031 L113.298828,29.4082031 L113.298828,16.9277344 L115.214844,16.9277344 L115.214844,13.2363281 L113.298828,13.2363281 L113.298828,9.5625 L106.179688,9.5625 L106.179688,13.2363281 L104.650391,13.2363281 L104.650391,16.9277344 L106.179688,16.9277344 L106.179688,28.7753906 C106.179688,31.0957031 106.244141,32.5693359 106.373047,33.1962891 C106.501953,33.8232422 106.830078,34.3798828 107.357422,34.8662109 C107.884766,35.3525391 108.494141,35.6630859 109.185547,35.7978516 C109.876953,35.9326172 111.03125,36 112.648438,36 L112.648438,36 L115.513672,36 Z M118.378906,36 C120.441406,36 121.958984,35.8095703 122.931641,35.4287109 C123.904297,35.0478516 124.542969,34.4882812 124.847656,33.75 C125.152344,33.0117188 125.304688,31.4414062 125.304688,29.0390625 L125.304688,29.0390625 L125.304688,14.5019531 C125.304688,12.1113281 125.152344,10.5410156 124.847656,9.79101562 C124.542969,9.04101562 123.892578,8.47851562 122.896484,8.10351562 C121.900391,7.72851562 120.394531,7.54101562 118.378906,7.54101562 L118.378906,7.54101562 L116.146484,7.54101562 L116.146484,11.25 C117.119141,11.25 117.749023,11.2910156 118.036133,11.3730469 C118.323242,11.4550781 118.537109,11.6455078 118.677734,11.9443359 C118.818359,12.2431641 118.888672,13.0898438 118.888672,14.484375 L118.888672,14.484375 L118.888672,29.0566406 C118.888672,30.3574219 118.833008,31.1689453 118.72168,31.4912109 C118.610352,31.8134766 118.414062,32.0273438 118.132812,32.1328125 C117.851562,32.2382812 117.189453,32.2910156 116.146484,32.2910156 L116.146484,32.2910156 L116.146484,36 L118.378906,36 Z" id="enhan(t)"></path>
            </g>
        </g>
    </g>
</svg>