<?xml version="1.0" encoding="UTF-8"?>
<svg width="20px" height="20px" viewBox="0 0 20 20" version="1.1" xmlns="http://www.w3.org/2000/svg" xmlns:xlink="http://www.w3.org/1999/xlink">
    <title>Fill</title>
    <g id="Symbols" stroke="none" stroke-width="1" fill="none" fill-rule="evenodd">
        <g id="Icon/Arrow-Circle-Right/Line" transform="translate(-2.000000, -2.000000)" fill="white">
            <path d="M11.9999996,2 L12.2799045,2.0038418 C17.6733312,2.15206821 21.9999996,6.57075806 21.9999996,12 L21.9999996,12 L21.9961578,12.279905 C21.8479314,17.6733316 17.4292419,22 11.9999996,22 C6.47714956,22 1.99999956,17.52285 1.99999956,12 C1.99999956,6.47715 6.47714956,2 11.9999996,2 L11.9999996,2 Z M11.9999997,4 C7.58171965,4 3.99999965,7.58172 3.99999965,12 C3.99999965,16.41828 7.58171965,20 11.9999997,20 L11.9999997,20 L12.2491791,19.9961932 C16.5521638,19.8645429 19.9999997,16.3349162 19.9999997,12 L19.9999997,12 L19.9961928,11.7508206 C19.8645426,7.44783584 16.3349159,4 11.9999997,4 Z M12.4650002,8.27500035 C12.8654102,7.89392345 13.4989242,7.90959445 13.8800002,8.31000045 L13.8800002,8.31000045 L16.7400001,11.3100004 C16.7733843,11.3508904 16.8034783,11.3943596 16.8300001,11.4400004 L16.8300001,11.4400004 L16.873094,11.4995023 C16.8997447,11.5405577 16.9221745,11.5842776 16.9400001,11.6300004 L16.9400001,11.6300004 L16.9701619,11.7210105 C16.9869222,11.7826438 16.9969478,11.8460116 17,11.9100004 L17,11.9100004 L17,11.9999986 C16.9997405,12.1340466 16.9725348,12.2666746 16.9199983,12.3899986 L16.9199983,12.3899986 L16.8638794,12.5054585 C16.8216463,12.5797954 16.7699656,12.6485651 16.7099983,12.7099987 L16.7099983,12.7099987 L13.7099983,15.7099987 C13.7080735,15.7119394 13.7061407,15.7138722 13.7042,15.715797 C13.31208,16.1047166 12.67892,16.1021206 12.29,15.7099986 L12.29,15.7099986 L12.2870949,15.7071054 C11.8952821,15.3120803 11.8978781,14.6789203 12.2900001,14.2900003 L12.2900001,14.2900003 L13.59,13.0000004 L8.00000004,13.0000004 C7.44771504,13.0000004 7.00000004,12.5522854 7.00000004,12.0000004 C7.00000004,11.4477154 7.44771504,11.0000004 8.00000004,11.0000004 L8.00000004,11.0000004 L13.6600001,11.0000004 L12.4300001,9.69000035 C12.0489232,9.28959035 12.0645942,8.65607635 12.4650002,8.27500035 Z" id="Fill"></path>
        </g>
    </g>
</svg>