<?xml version="1.0" encoding="UTF-8"?>
<svg width="20px" height="20px" viewBox="0 0 20 20" version="1.1" xmlns="http://www.w3.org/2000/svg" xmlns:xlink="http://www.w3.org/1999/xlink">
    <title>Fill</title>
    <defs>
        <path d="M12,2 L12,2 C6.47715,2 2,6.47715 2,12 C2,17.52285 6.47715,22 12,22 C17.52285,22 22,17.52285 22,12 L22,12 C22,6.47715044 17.52285,2 12,2 L12,2 Z M15.8000004,12.6666667 L10.9583338,16 L10.9583338,16 C10.5425154,16.2967767 9.96484209,16.200275 9.66806709,15.7844567 C9.57321043,15.6515517 9.51522459,15.4959058 9.50000123,15.3333333 L9.50000123,8.66666668 L9.50000123,8.66666701 C9.54762948,8.15802867 9.99857289,7.78430867 10.5072096,7.83193367 C10.6697821,7.84715676 10.8254279,7.90514242 10.9583329,7.99999867 L15.7999996,11.333332 L15.7999996,11.333332 C16.1681896,11.5604862 16.2825221,12.043107 16.0553679,12.4112987 C15.9912973,12.5151495 15.9038504,12.6025962 15.7999996,12.666667 L15.8000004,12.6666667 Z" id="path-1"></path>
    </defs>
    <g id="Symbols" stroke="none" stroke-width="1" fill="none" fill-rule="evenodd">
        <g id="Icon/Play-Circle/Fill" transform="translate(-2.000000, -2.000000)">
            <mask id="mask-2" fill="white">
                <use xlink:href="#path-1"></use>
            </mask>
            <use id="Fill" fill="#1E90FF" xlink:href="#path-1"></use>
        </g>
    </g>
</svg>