<?xml version="1.0" encoding="UTF-8"?>
<svg width="20px" height="20px" viewBox="0 0 20 20" version="1.1" xmlns="http://www.w3.org/2000/svg" xmlns:xlink="http://www.w3.org/1999/xlink">
    <title>Fill</title>
    <g id="Symbols" stroke="none" stroke-width="1" fill="none" fill-rule="evenodd">
        <g id="Icon/Settings-2/Line" transform="translate(-2.000000, -2.000000)" fill="#FFFFFF" fill-opacity="0.7">
            <path d="M13,2.00000298 C13.9278378,2.00000298 14.6799998,2.75216498 14.6799998,3.68000298 L14.6799998,4.77000286 C14.6888434,4.87487326 14.74545,4.96813342 14.8308487,5.02477675 L14.8999998,5.06000285 C15.0249438,5.14005495 15.1850558,5.14005495 15.3099998,5.06000288 L16,4.26000288 C16.6498858,3.60554588 17.7072598,3.60183888 18.3617198,4.25172502 L18.3699976,4.26000288 L18.3699976,4.26000288 L19.7399976,5.60000288 C20.0594196,5.91362388 20.2395586,6.34235488 20.2399976,6.79000288 L20.2399977,6.79000512 C20.2497535,7.24549012 20.0684387,7.68427112 19.7399957,8.00000298 L19,8.74000512 C18.9270131,8.85254112 18.9270131,8.99746912 19,9.11000512 C19.0599957,9.26000512 19.1599957,9.37000512 19.2999957,9.37000512 L20.3899957,9.37000512 C21.2919757,9.41274882 22.0010057,10.1570121 22,11.0600051 L22,13.000003 C22,13.9278431 21.2478337,14.6800051 20.3199957,14.6800051 L19.2299957,14.6800051 C19.1251253,14.6888487 19.0318651,14.7454553 18.9752218,14.830854 L18.9399957,14.9000051 C18.8670131,15.0125411 18.8670131,15.1574691 18.9399957,15.2700051 L19.7099957,16.0400052 C20.3644527,16.6898912 20.3681587,17.7472652 19.7182735,18.4017252 L19.7099956,18.410003 L19.7099956,18.410003 L18.3999957,19.740003 C18.1288358,20.0189967 17.7691927,20.1919001 17.3856474,20.2313475 L17.2199957,20.240003 C16.7734607,20.2341392 16.3467127,20.054833 16.0299957,19.740003 L15.2599956,19.000003 C15.1474596,18.9270204 15.0025316,18.9270204 14.8899956,19.000003 C14.7399956,19.060003 14.6299956,19.160003 14.6299956,19.300003 L14.6299957,20.3900021 C14.5872515,21.2919821 13.8429877,22.0010121 12.9399957,22.000003 L11.0499999,22.000003 C10.1709955,22.000003 9.44966151,21.3249297 9.37616653,20.4649568 L9.36999993,20.32 L9.36999993,20.32 L9.36999994,19.2300001 C9.36115634,19.1251297 9.30454979,19.0318696 9.21915108,18.9752262 L9.14999993,18.9400001 C9.02505593,18.859948 8.86494393,18.859948 8.73999993,18.9400001 L8.00000002,19.7400001 C7.35011397,20.3944571 6.29273997,20.3981641 5.63827997,19.748278 C5.63551102,19.7455284 5.63275172,19.7427691 5.63000211,19.7400002 L4.26000207,18.4000001 C3.97967307,18.1261487 3.8065775,17.7633486 3.76814734,17.3768855 L3.76000208,17.209989 C3.76064761,16.756514 3.94035008,16.321641 4.26001008,15.999989 L5.00001008,15.259989 C5.07299268,15.147453 5.07299268,15.002525 5.00001009,14.889989 C4.94001009,14.739989 4.84001009,14.629989 4.70001009,14.629989 L3.68000002,14.629989 C2.75054902,14.6244891 2.00000002,13.869464 2.00000002,12.939999 L2.00000002,11.0499987 C2.00000002,10.1221607 2.75216202,9.36999873 3.68000002,9.36999873 L4.77000003,9.36999872 C4.87487043,9.36115512 4.96813059,9.30454852 5.02477392,9.21914983 L5.06000003,9.14999873 C5.14005213,9.02505473 5.14005213,8.86494273 5.06000004,8.73999873 L4.26000003,8.00000298 C3.60554303,7.35011272 3.60183603,6.29273872 4.25172219,5.63827872 L4.26000005,5.63000086 L4.26000005,5.63000086 L5.60000005,4.26000086 L5.59999997,4.26000094 C5.87115984,3.98100719 6.230803,3.8081038 6.6143483,3.76865641 L6.77999996,3.76000094 C7.23693796,3.75799577 7.67589396,3.93789594 8.00000002,4.26000094 L8.73999996,5.00000298 C8.85253596,5.07298354 8.99746396,5.07298354 9.10999996,5.00000298 C9.25999996,4.94000094 9.36999996,4.84000094 9.36999996,4.70000094 L9.36999989,3.68001298 C9.37549309,2.75055898 10.1305179,2.00000298 11.0599899,2.00000298 L13,2.00000298 Z M12.6699948,3.99999892 L11.3699948,3.99999892 L11.3699949,4.76998888 C11.3618321,5.6541217 10.8547511,6.45189318 10.0704877,6.83829891 L9.91000488,6.90999889 C9.03136088,7.29406689 8.00767488,7.10830189 7.32000488,6.43999889 L6.78000488,5.89999889 L5.90000488,6.77999889 L6.44000484,7.32999885 C7.33021884,8.30458385 7.26182284,9.81629885 6.28723784,10.7065189 C5.87088384,11.0868289 5.33346584,11.3076729 4.77000784,11.3300029 L3.99999884,11.3300029 L3.99999884,12.5900029 L4.76999895,12.5900029 C5.65413177,12.5981695 6.45190325,13.1052542 6.83830074,13.8895197 L6.90999901,14.050003 C7.29406701,14.928647 7.10830201,15.952333 6.43999901,16.640003 L5.89999901,17.180003 L6.77999901,18.060003 L7.3299991,17.5200029 C8.3045841,16.6297889 9.8162991,16.6981859 10.7065191,17.6727699 C11.0868291,18.0891239 11.3076731,18.6265419 11.3300031,19.1899999 L11.37,19.9999989 L12.63,19.9999989 L12.6299999,19.2300103 C12.6381626,18.3458775 13.1452437,17.548106 13.9295071,17.1617002 L14.08999,17.0900002 C14.968634,16.7059322 15.99232,16.8916972 16.67999,17.5600002 L17.21999,18.1000002 L18.09999,17.2200002 L17.5599899,16.6700001 C16.9374758,16.0351204 16.7319544,15.1068267 17.0165205,14.2749701 L17.0799899,14.11 C17.4352319,13.239004 18.2793599,12.66705 19.2199899,12.66 L19.9999988,12.66 L19.9999988,11.37 L19.2299989,11.37 C18.3458661,11.3618334 17.5480946,10.8547487 17.1616971,10.0704832 L17.0899988,9.90999989 C16.7059308,9.03135589 16.8916958,8.00766989 17.5599988,7.31999989 L18.0999988,6.77999989 L17.2199988,5.89999989 L16.6699988,6.43999992 C15.6954138,7.33021392 14.1836988,7.26181792 13.2934788,6.28723292 C12.9131688,5.87087892 12.6923248,5.33346092 12.6699948,4.77000292 L12.6699948,3.99999892 Z M11.9999998,8.5 C13.8685665,8.5 15.3951265,9.96427444 15.494821,11.8079645 L15.4999998,12 C15.4999998,13.8685667 14.0357254,15.3951267 12.1920354,15.4948211 L11.9999998,15.5 C10.0669998,15.5 8.49999985,13.933 8.49999985,12 C8.49999985,10.067 10.0669998,8.5 11.9999998,8.5 Z M11.9999999,10.5 C11.1715729,10.5 10.4999999,11.171573 10.4999999,12 C10.4999999,12.828427 11.1715729,13.5 11.9999999,13.5 C12.7796959,13.5 13.4204486,12.9051118 13.4931334,12.14446 L13.4999999,12 C13.4999999,11.220304 12.9051117,10.5795513 12.1444599,10.5068666 L11.9999999,10.5 Z" id="Fill"></path>
        </g>
    </g>
</svg>