<?xml version="1.0" encoding="UTF-8"?>
<svg width="40px" height="40px" viewBox="0 0 40 40" version="1.1" xmlns="http://www.w3.org/2000/svg" xmlns:xlink="http://www.w3.org/1999/xlink">
    <title>Icon/Pause Circle/Fill</title>
    <g id="enhant-JSON-Viewer" stroke="none" stroke-width="1" fill="none" fill-rule="evenodd">
        <g id="Extra-Icons" transform="translate(-310.000000, -230.000000)">
            <g id="Icon/Pause-Circle/Fill" transform="translate(306.000000, 226.000000)">
                <polygon id="24pt-Bounding-Box" opacity="0" fill-rule="nonzero" points="0 0 48 0 48 48 0 48"></polygon>
                <path d="M23.9999991,4 L23.9999991,4 C12.9542991,4 3.99999913,12.9543 3.99999913,24 C3.99999913,35.0457 12.9542991,44 23.9999991,44 C35.0456991,44 43.9999991,35.0457 43.9999991,24 L43.9999991,24 C43.9999991,12.9543009 35.0456991,4 23.9999991,4 L23.9999991,4 Z M20,30.0000003 L20,30.0000003 C20,31.10457 19.10457,32.0000003 18,32.0000003 C16.89543,32.0000003 16,31.10457 16,30.0000003 L16,18.0000003 L16,18.0000003 C16,16.8954303 16.89543,16.0000003 18,16.0000003 C19.10457,16.0000003 20,16.8954303 20,18.0000003 C20,18.0000003 20,18.0000003 20,18.0000003 L20,30.0000003 Z M32,30.0000003 L32,30.0000003 C32,31.10457 31.10457,32.0000003 30,32.0000003 C28.89543,32.0000003 28,31.10457 28,30.0000003 L28,18.0000003 L28,18.0000003 C28,16.8954303 28.89543,16.0000003 30,16.0000003 C31.10457,16.0000003 32,16.8954303 32,18.0000003 C32,18.0000003 32,18.0000003 32,18.0000003 L32,30.0000003 Z" id="Fill" fill="#FFFFFF" fill-rule="evenodd"></path>
            </g>
        </g>
    </g>
</svg>