<?xml version="1.0" encoding="UTF-8"?>
<svg width="16px" height="17px" viewBox="0 0 16 17" version="1.1" xmlns="http://www.w3.org/2000/svg" xmlns:xlink="http://www.w3.org/1999/xlink">
    <title>Fill</title>
    <g id="Symbols" stroke="none" stroke-width="1" fill="none" fill-rule="evenodd">
        <g id="Icon/Upload" transform="translate(-4.000000, -4.000000)" fill="#1E90FF">
            <path d="M10.999,11.993 L8.5999955,13.8000002 C8.4615187,13.9038578 8.29908158,13.9695433 8.12886436,13.9916632 L7.99999996,14.0000002 C7.72458758,14.0000002 7.46323821,13.886539 7.27568676,13.6894834 L7.20000001,13.6000001 C6.89411908,13.1921588 6.94688678,12.6267066 7.30432452,12.2814958 L7.40000001,12.2000001 L7.40000001,12.2000001 L11.4,9.20000007 L11.4,9.20000008 C11.75142,8.94320408 12.22858,8.94320408 12.58,9.20000006 L16.58,12.02 C16.9942907,12.313892 17.1175456,12.8657792 16.8854612,13.3032355 L16.82,13.41 C16.503062,13.862293 15.879477,13.97202 15.42718,13.655082 C15.4247777,13.6533987 15.4223828,13.6517047 15.4199954,13.6500003 L12.996,11.943 L13,12.0000002 L13,12.0000002 L13,20.0000002 C13,20.5128362 12.61396,20.9355073 12.1166211,20.9932724 L12,21.0000002 C11.4871639,21.0000002 11.0644928,20.61396 11.0067277,20.1166213 L11,20.0000002 L11,20.0000002 L10.999,11.993 Z M19,4 C19.55228,4 20,4.44772 20,5 L20,7 C20,7.51283143 19.6139557,7.93550653 19.1166202,7.9932722 L19,8 C18.44772,8 18,7.55228 18,7 L18,5.999 L6,6 L6,7 C6,7.51283143 5.61395571,7.93550653 5.11662025,7.9932722 L5,8 C4.44772,8 4,7.55228 4,7 L4,5 C4,4.48716857 4.38604429,4.06449347 4.88337975,4.0067278 L5,4 L19,4 Z" id="Fill"></path>
        </g>
    </g>
</svg>